<svg width="145px" height="55px" viewBox="0 0 16865 4791" fill="none" xmlns="http://www.w3.org/2000/svg">
<path d="M2822.89 318.005C2904.58 142.816 3112.83 67.0213 3288.02 148.713L4981.36 938.332C5156.55 1020.02 5232.34 1228.27 5150.65 1403.46L3719.03 4473.57C3637.34 4648.76 3429.1 4724.55 3253.91 4642.86L1560.57 3853.24C1385.38 3771.55 1309.58 3563.31 1391.27 3388.12L2822.89 318.005Z" fill="#B6B2FF"/>
<path d="M1859.58 926.829C1941.27 751.64 2149.51 675.845 2324.7 757.537L3892.64 1488.68C4067.83 1570.37 4143.62 1778.62 4061.93 1953.8L2887.64 4472.08L1002.49 3593.02C827.304 3511.33 751.509 3303.08 833.201 3127.9L1859.58 926.829Z" fill="#6D55FD"/>
<path d="M546.75 1954.86C628.442 1779.67 836.685 1703.88 1011.87 1785.57L2579.41 2516.52C2754.6 2598.22 2830.4 2806.46 2748.7 2981.65L2202.65 4152.67L317.9 3273.8C142.711 3192.11 66.9165 2983.87 148.608 2808.68L546.75 1954.86Z" fill="#5A31F5"/>
<path d="M6445.1 2440.97C6548.41 2440.97 6640.42 2461.96 6721.13 2503.93C6803.45 2544.28 6868.02 2607.23 6914.83 2692.79C6961.64 2776.73 6985.05 2884.88 6985.05 3017.24V3763H6607.32V3075.35C6607.32 2970.43 6583.92 2892.95 6537.11 2842.91C6491.91 2792.87 6427.34 2767.85 6343.4 2767.85C6283.68 2767.85 6229.6 2780.76 6181.18 2806.59C6134.36 2830.8 6097.24 2868.73 6069.8 2920.39C6043.97 2972.04 6031.06 3038.23 6031.06 3118.94V3763H5653.33V1966.4H6031.06V2821.12L5946.31 2712.16C5993.12 2624.99 6060.11 2558 6147.28 2511.19C6234.44 2464.38 6333.72 2440.97 6445.1 2440.97ZM8126.46 3763V3508.76L8102.25 3453.07V2997.87C8102.25 2917.16 8077.23 2854.21 8027.19 2809.01C7978.76 2763.81 7903.7 2741.21 7802.01 2741.21C7732.6 2741.21 7663.99 2752.51 7596.2 2775.11C7530.02 2796.1 7473.52 2825.15 7426.71 2862.28L7291.11 2598.36C7362.14 2548.32 7447.69 2509.58 7547.77 2482.13C7647.85 2454.69 7749.55 2440.97 7852.85 2440.97C8051.4 2440.97 8205.56 2487.78 8315.32 2581.41C8425.09 2675.03 8479.97 2821.12 8479.97 3019.66V3763H8126.46ZM7729.37 3782.37C7627.67 3782.37 7540.51 3765.42 7467.87 3731.52C7395.23 3696.01 7339.54 3648.39 7300.8 3588.67C7262.06 3528.94 7242.69 3461.95 7242.69 3387.7C7242.69 3310.22 7261.25 3242.42 7298.38 3184.31C7337.12 3126.2 7397.65 3081 7479.97 3048.72C7562.3 3014.82 7669.64 2997.87 7802.01 2997.87H8148.25V3218.21H7843.17C7754.39 3218.21 7693.05 3232.74 7659.15 3261.79C7626.87 3290.85 7610.72 3327.17 7610.72 3370.75C7610.72 3419.18 7629.29 3457.92 7666.41 3486.97C7705.16 3514.41 7757.62 3528.13 7823.8 3528.13C7886.75 3528.13 7943.25 3513.61 7993.29 3484.55C8043.33 3453.88 8079.65 3409.49 8102.25 3351.38L8160.36 3525.71C8132.92 3609.65 8082.88 3673.41 8010.24 3717C7937.6 3760.58 7843.98 3782.37 7729.37 3782.37ZM9354.51 3782.37C9201.16 3782.37 9081.71 3743.63 8996.16 3666.15C8910.61 3587.05 8867.83 3470.02 8867.83 3315.06V2172.21H9245.55V3310.22C9245.55 3365.1 9260.08 3407.88 9289.14 3438.55C9318.19 3467.6 9357.74 3482.13 9407.78 3482.13C9467.51 3482.13 9518.35 3465.99 9560.32 3433.7L9662.02 3700.05C9623.28 3727.49 9576.47 3748.47 9521.58 3763C9468.31 3775.91 9412.62 3782.37 9354.51 3782.37ZM8666.86 2779.95V2489.4H9570.01V2779.95H8666.86ZM10463.4 3782.37C10323 3782.37 10197.9 3754.12 10088.1 3697.62C9978.32 3639.51 9891.97 3559.61 9829.01 3457.92C9767.67 3356.22 9737 3240.81 9737 3111.67C9737 2980.92 9767.67 2865.51 9829.01 2765.43C9891.97 2663.73 9978.32 2584.64 10088.1 2528.14C10197.9 2470.03 10323 2440.97 10463.4 2440.97C10600.6 2440.97 10720 2470.03 10821.7 2528.14C10923.4 2584.64 10998.5 2666.15 11046.9 2772.69L10753.9 2930.07C10720 2868.73 10677.3 2823.54 10625.6 2794.48C10575.6 2765.43 10520.7 2750.9 10461 2750.9C10396.4 2750.9 10338.3 2765.43 10286.6 2794.48C10235 2823.54 10193.8 2864.7 10163.2 2917.97C10134.1 2971.24 10119.6 3035.8 10119.6 3111.67C10119.6 3187.54 10134.1 3252.11 10163.2 3305.37C10193.8 3358.64 10235 3399.81 10286.6 3428.86C10338.3 3457.92 10396.4 3472.44 10461 3472.44C10520.7 3472.44 10575.6 3458.72 10625.6 3431.28C10677.3 3402.23 10720 3356.22 10753.9 3293.27L11046.9 3453.07C10998.5 3558 10923.4 3639.51 10821.7 3697.62C10720 3754.12 10600.6 3782.37 10463.4 3782.37ZM12049.1 2440.97C12152.4 2440.97 12244.4 2461.96 12325.1 2503.93C12407.4 2544.28 12472 2607.23 12518.8 2692.79C12565.6 2776.73 12589 2884.88 12589 3017.24V3763H12211.3V3075.35C12211.3 2970.43 12187.9 2892.95 12141.1 2842.91C12095.9 2792.87 12031.3 2767.85 11947.4 2767.85C11887.7 2767.85 11833.6 2780.76 11785.2 2806.59C11738.3 2830.8 11701.2 2868.73 11673.8 2920.39C11647.9 2972.04 11635 3038.23 11635 3118.94V3763H11257.3V1966.4H11635V2821.12L11550.3 2712.16C11597.1 2624.99 11664.1 2558 11751.3 2511.19C11838.4 2464.38 11937.7 2440.97 12049.1 2440.97ZM12931.4 3763V2460.34H13309.1V3763H12931.4ZM13120.3 2278.74C13050.9 2278.74 12994.4 2258.57 12950.8 2218.21C12907.2 2177.86 12885.4 2127.82 12885.4 2068.09C12885.4 2008.37 12907.2 1958.33 12950.8 1917.97C12994.4 1877.62 13050.9 1857.44 13120.3 1857.44C13189.7 1857.44 13246.2 1876.81 13289.8 1915.55C13333.3 1952.68 13355.1 2001.1 13355.1 2060.83C13355.1 2123.78 13333.3 2176.24 13289.8 2218.21C13247.8 2258.57 13191.3 2278.74 13120.3 2278.74ZM14451.5 2440.97C14554.8 2440.97 14646.8 2461.96 14727.5 2503.93C14809.8 2544.28 14874.4 2607.23 14921.2 2692.79C14968 2776.73 14991.4 2884.88 14991.4 3017.24V3763H14613.7V3075.35C14613.7 2970.43 14590.3 2892.95 14543.5 2842.91C14498.3 2792.87 14433.7 2767.85 14349.8 2767.85C14290 2767.85 14236 2780.76 14187.5 2806.59C14140.7 2830.8 14103.6 2868.73 14076.2 2920.39C14050.3 2972.04 14037.4 3038.23 14037.4 3118.94V3763H13659.7V2460.34H14020.5V2821.12L13952.7 2712.16C13999.5 2624.99 14066.5 2558 14153.6 2511.19C14240.8 2464.38 14340.1 2440.97 14451.5 2440.97ZM15955.8 4252.1C15833.2 4252.1 15714.5 4236.77 15599.9 4206.1C15486.9 4177.04 15392.5 4132.65 15316.6 4072.93L15466.7 3801.74C15521.6 3846.94 15591 3882.45 15675 3908.28C15760.5 3935.72 15844.5 3949.44 15926.8 3949.44C16060.8 3949.44 16157.6 3919.58 16217.3 3859.85C16278.7 3800.13 16309.3 3711.35 16309.3 3593.51V3397.38L16333.6 3070.51L16328.7 2741.21V2460.34H16687.1V3545.08C16687.1 3787.21 16624.1 3965.58 16498.2 4080.19C16372.3 4194.8 16191.5 4252.1 15955.8 4252.1ZM15897.7 3700.05C15776.7 3700.05 15666.9 3674.22 15568.4 3622.56C15471.6 3569.3 15393.3 3495.85 15333.6 3402.23C15275.5 3306.99 15246.4 3196.42 15246.4 3070.51C15246.4 2942.99 15275.5 2832.41 15333.6 2738.79C15393.3 2643.55 15471.6 2570.11 15568.4 2518.45C15666.9 2466.8 15776.7 2440.97 15897.7 2440.97C16007.5 2440.97 16104.3 2463.57 16188.3 2508.77C16272.2 2552.35 16337.6 2620.95 16384.4 2714.58C16431.2 2806.59 16454.6 2925.23 16454.6 3070.51C16454.6 3214.17 16431.2 3332.82 16384.4 3426.44C16337.6 3518.45 16272.2 3587.05 16188.3 3632.25C16104.3 3677.45 16007.5 3700.05 15897.7 3700.05ZM15972.8 3390.12C16039 3390.12 16097.9 3377.21 16149.5 3351.38C16201.2 3323.94 16241.6 3286 16270.6 3237.58C16299.7 3189.15 16314.2 3133.46 16314.2 3070.51C16314.2 3005.94 16299.7 2950.25 16270.6 2903.44C16241.6 2855.01 16201.2 2817.89 16149.5 2792.06C16097.9 2764.62 16039 2750.9 15972.8 2750.9C15906.6 2750.9 15847.7 2764.62 15796 2792.06C15744.4 2817.89 15703.2 2855.01 15672.5 2903.44C15643.5 2950.25 15629 3005.94 15629 3070.51C15629 3133.46 15643.5 3189.15 15672.5 3237.58C15703.2 3286 15744.4 3323.94 15796 3351.38C15847.7 3377.21 15906.6 3390.12 15972.8 3390.12Z" fill="#111111"/>
</svg>
