<svg width="40" height="40" viewBox="0 0 32 32" fill="none" xmlns="http://www.w3.org/2000/svg">
<g clip-path="url(#clip0_3625_370)">
<path d="M15.9993 2.6665C23.3633 2.6665 29.3327 8.63584 29.3327 15.9998C29.3327 23.3638 23.3633 29.3332 15.9993 29.3332C8.63535 29.3332 2.66602 23.3638 2.66602 15.9998C2.66602 8.63584 8.63535 2.6665 15.9993 2.6665ZM15.9993 5.33317C13.1704 5.33317 10.4573 6.45698 8.45688 8.45737C6.45649 10.4578 5.33268 13.1709 5.33268 15.9998C5.33268 18.8288 6.45649 21.5419 8.45688 23.5423C10.4573 25.5427 13.1704 26.6665 15.9993 26.6665C18.8283 26.6665 21.5414 25.5427 23.5418 23.5423C25.5422 21.5419 26.666 18.8288 26.666 15.9998C26.666 13.1709 25.5422 10.4578 23.5418 8.45737C21.5414 6.45698 18.8283 5.33317 15.9993 5.33317ZM15.9993 7.99984C16.3259 7.99988 16.6411 8.11978 16.8852 8.33679C17.1292 8.5538 17.2851 8.85284 17.3233 9.17717L17.3327 9.33317V15.4478L20.942 19.0572C21.1811 19.2971 21.32 19.6191 21.3303 19.9577C21.3407 20.2963 21.2217 20.6261 20.9977 20.8802C20.7736 21.1343 20.4613 21.2936 20.1241 21.3257C19.7868 21.3578 19.45 21.2604 19.182 21.0532L19.0567 20.9425L15.0567 16.9425C14.8495 16.7351 14.7164 16.4652 14.678 16.1745L14.666 15.9998V9.33317C14.666 8.97955 14.8065 8.64041 15.0565 8.39036C15.3066 8.14031 15.6457 7.99984 15.9993 7.99984Z" fill="#141719"/>
</g>
<defs>
<clipPath id="clip0_3625_370">
<rect width="32" height="32" fill="white"/>
</clipPath>
</defs>
</svg>
