<svg width="135" height="40" viewBox="0 0 135 40" fill="none" xmlns="http://www.w3.org/2000/svg">
<rect x="0.5" y="0.5" width="134" height="39" rx="4.5" fill="white"/>
<rect x="0.5" y="0.5" width="134" height="39" rx="4.5" stroke="black"/>
<path d="M68.136 21.7511C65.784 21.7511 63.867 23.5401 63.867 26.0041C63.867 28.4531 65.784 30.2571 68.136 30.2571C70.489 30.2571 72.406 28.4531 72.406 26.0041C72.405 23.5401 70.488 21.7511 68.136 21.7511ZM68.136 28.5831C66.847 28.5831 65.736 27.5201 65.736 26.0051C65.736 24.4741 66.848 23.4271 68.136 23.4271C69.425 23.4271 70.536 24.4741 70.536 26.0051C70.536 27.5191 69.425 28.5831 68.136 28.5831ZM58.822 21.7511C56.47 21.7511 54.553 23.5401 54.553 26.0041C54.553 28.4531 56.47 30.2571 58.822 30.2571C61.175 30.2571 63.092 28.4531 63.092 26.0041C63.092 23.5401 61.175 21.7511 58.822 21.7511ZM58.822 28.5831C57.533 28.5831 56.422 27.5201 56.422 26.0051C56.422 24.4741 57.534 23.4271 58.822 23.4271C60.111 23.4271 61.222 24.4741 61.222 26.0051C61.223 27.5191 60.111 28.5831 58.822 28.5831ZM47.744 23.0571V24.8611H52.062C51.933 25.8761 51.595 26.6171 51.079 27.1321C50.451 27.7601 49.468 28.4531 47.744 28.4531C45.086 28.4531 43.008 26.3101 43.008 23.6521C43.008 20.9941 45.086 18.8511 47.744 18.8511C49.178 18.8511 50.225 19.4151 50.998 20.1401L52.271 18.8671C51.191 17.8361 49.758 17.0471 47.744 17.0471C44.103 17.0471 41.042 20.0111 41.042 23.6521C41.042 27.2931 44.103 30.2571 47.744 30.2571C49.709 30.2571 51.192 29.6121 52.351 28.4041C53.543 27.2121 53.914 25.5361 53.914 24.1831C53.914 23.7651 53.882 23.3781 53.817 23.0561H47.744V23.0571ZM93.052 24.4581C92.698 23.5081 91.618 21.7511 89.411 21.7511C87.22 21.7511 85.399 23.4751 85.399 26.0041C85.399 28.3881 87.204 30.2571 89.62 30.2571C91.569 30.2571 92.697 29.0651 93.165 28.3721L91.715 27.4051C91.232 28.1141 90.571 28.5811 89.62 28.5811C88.67 28.5811 87.993 28.1461 87.558 27.2921L93.245 24.9401L93.052 24.4581ZM87.252 25.8761C87.204 24.2321 88.525 23.3951 89.476 23.3951C90.217 23.3951 90.845 23.7661 91.055 24.2971L87.252 25.8761ZM82.629 30.0001H84.497V17.4991H82.629V30.0001ZM79.567 22.7021H79.503C79.084 22.2021 78.278 21.7511 77.264 21.7511C75.137 21.7511 73.188 23.6201 73.188 26.0211C73.188 28.4051 75.137 30.2581 77.264 30.2581C78.279 30.2581 79.084 29.8071 79.503 29.2921H79.567V29.9041C79.567 31.5311 78.697 32.4011 77.296 32.4011C76.152 32.4011 75.443 31.5801 75.153 30.8871L73.526 31.5641C73.993 32.6911 75.233 34.0771 77.296 34.0771C79.487 34.0771 81.34 32.7881 81.34 29.6461V22.0101H79.568V22.7021H79.567ZM77.425 28.5831C76.136 28.5831 75.057 27.5031 75.057 26.0211C75.057 24.5221 76.136 23.4271 77.425 23.4271C78.697 23.4271 79.696 24.5221 79.696 26.0211C79.696 27.5031 78.697 28.5831 77.425 28.5831ZM101.806 17.4991H97.335V30.0001H99.2V25.2641H101.805C103.873 25.2641 105.907 23.7671 105.907 21.3821C105.907 18.9971 103.874 17.4991 101.806 17.4991ZM101.854 23.5241H99.2V19.2391H101.854C103.249 19.2391 104.041 20.3941 104.041 21.3821C104.041 22.3501 103.249 23.5241 101.854 23.5241ZM113.386 21.7291C112.035 21.7291 110.636 22.3241 110.057 23.6431L111.713 24.3341C112.067 23.6431 112.727 23.4171 113.418 23.4171C114.383 23.4171 115.364 23.9961 115.38 25.0251V25.1541C115.042 24.9611 114.318 24.6721 113.434 24.6721C111.649 24.6721 109.831 25.6531 109.831 27.4861C109.831 29.1591 111.295 30.2361 112.935 30.2361C114.189 30.2361 114.881 29.6731 115.315 29.0131H115.379V29.9781H117.181V25.1851C117.182 22.9671 115.524 21.7291 113.386 21.7291ZM113.16 28.5801C112.55 28.5801 111.697 28.2741 111.697 27.5181C111.697 26.5531 112.759 26.1831 113.676 26.1831C114.495 26.1831 114.882 26.3601 115.38 26.6011C115.235 27.7601 114.238 28.5801 113.16 28.5801ZM123.743 22.0021L121.604 27.4221H121.54L119.32 22.0021H117.31L120.639 29.5771L118.741 33.7911H120.687L125.818 22.0021H123.743ZM106.937 30.0001H108.802V17.4991H106.937V30.0001Z" fill="black"/>
<path fill-rule="evenodd" clip-rule="evenodd" d="M10.1564 7.96648C10.0383 8.23398 9.97302 8.56174 9.97302 8.943V31.059C9.97302 31.4411 10.0384 31.7689 10.1566 32.0363L22.1905 20.0006L10.1564 7.96648ZM10.8516 32.7555C11.2977 32.9464 11.8795 32.8858 12.514 32.526L26.6711 24.4812L22.8976 20.7077L10.8516 32.7555ZM27.5736 23.9695L32.015 21.446C33.412 20.651 33.412 19.352 32.015 18.558L27.5716 16.0331L23.6047 20.0006L27.5736 23.9695ZM26.6698 15.5207L12.514 7.47701C11.8795 7.11643 11.2976 7.05626 10.8515 7.2474L22.8976 19.2935L26.6698 15.5207Z" fill="black"/>
<path d="M40.1555 9.5831H39.1584C39.12 9.37003 39.0487 9.18253 38.9442 9.0206C38.8398 8.85866 38.712 8.72124 38.5607 8.60831C38.4094 8.49538 38.2401 8.41016 38.0526 8.35263C37.8672 8.2951 37.6701 8.26634 37.4613 8.26634C37.0842 8.26634 36.7464 8.36115 36.4482 8.55078C36.152 8.74041 35.9176 9.01847 35.745 9.38494C35.5746 9.75142 35.4893 10.1989 35.4893 10.7273C35.4893 11.2599 35.5746 11.7095 35.745 12.076C35.9176 12.4425 36.1531 12.7195 36.4513 12.907C36.7496 13.0945 37.0852 13.1882 37.4581 13.1882C37.6648 13.1882 37.8608 13.1605 38.0462 13.1051C38.2337 13.0476 38.4031 12.9634 38.5543 12.8526C38.7056 12.7418 38.8335 12.6065 38.9379 12.4467C39.0444 12.2848 39.1179 12.0994 39.1584 11.8906L40.1555 11.8938C40.1023 12.2156 39.9989 12.5117 39.8455 12.7823C39.6942 13.0508 39.4993 13.283 39.2607 13.479C39.0241 13.6729 38.7536 13.8232 38.4489 13.9297C38.1442 14.0362 37.8118 14.0895 37.4517 14.0895C36.8849 14.0895 36.38 13.9553 35.9368 13.6868C35.4936 13.4162 35.1442 13.0295 34.8885 12.5266C34.6349 12.0238 34.5082 11.424 34.5082 10.7273C34.5082 10.0284 34.636 9.42862 34.8917 8.92791C35.1474 8.42507 35.4968 8.03942 35.94 7.77095C36.3832 7.50035 36.8871 7.36506 37.4517 7.36506C37.799 7.36506 38.1229 7.41513 38.4233 7.51527C38.7259 7.61328 38.9975 7.75817 39.2383 7.94993C39.479 8.13956 39.6783 8.3718 39.8359 8.64666C39.9936 8.91939 40.1001 9.23153 40.1555 9.5831ZM43.3284 14.0991C42.8682 14.0991 42.4665 13.9936 42.1235 13.7827C41.7805 13.5717 41.5141 13.2766 41.3245 12.8974C41.1349 12.5181 41.04 12.0749 41.04 11.5678C41.04 11.0586 41.1349 10.6133 41.3245 10.2319C41.5141 9.8505 41.7805 9.55433 42.1235 9.34339C42.4665 9.13246 42.8682 9.02699 43.3284 9.02699C43.7886 9.02699 44.1903 9.13246 44.5333 9.34339C44.8763 9.55433 45.1427 9.8505 45.3323 10.2319C45.5219 10.6133 45.6167 11.0586 45.6167 11.5678C45.6167 12.0749 45.5219 12.5181 45.3323 12.8974C45.1427 13.2766 44.8763 13.5717 44.5333 13.7827C44.1903 13.9936 43.7886 14.0991 43.3284 14.0991ZM43.3316 13.2969C43.6299 13.2969 43.877 13.218 44.0731 13.0604C44.2691 12.9027 44.414 12.6928 44.5077 12.4308C44.6036 12.1687 44.6515 11.88 44.6515 11.5646C44.6515 11.2514 44.6036 10.9638 44.5077 10.7017C44.414 10.4375 44.2691 10.2255 44.0731 10.0657C43.877 9.90589 43.6299 9.82599 43.3316 9.82599C43.0312 9.82599 42.7819 9.90589 42.5837 10.0657C42.3877 10.2255 42.2417 10.4375 42.1459 10.7017C42.0521 10.9638 42.0052 11.2514 42.0052 11.5646C42.0052 11.88 42.0521 12.1687 42.1459 12.4308C42.2417 12.6928 42.3877 12.9027 42.5837 13.0604C42.7819 13.218 43.0312 13.2969 43.3316 13.2969ZM46.6834 14V9.09091H47.6007V9.88991H47.6614C47.7637 9.61932 47.9309 9.40838 48.1632 9.2571C48.3954 9.10369 48.6735 9.02699 48.9973 9.02699C49.3255 9.02699 49.6003 9.10369 49.8219 9.2571C50.0456 9.41051 50.2108 9.62145 50.3173 9.88991H50.3684C50.4856 9.62784 50.6721 9.41903 50.9277 9.26349C51.1834 9.10582 51.4881 9.02699 51.8418 9.02699C52.2871 9.02699 52.6504 9.16655 52.9316 9.44567C53.215 9.72479 53.3567 10.1456 53.3567 10.7081V14H52.4011V10.7976C52.4011 10.4652 52.3105 10.2244 52.1294 10.0753C51.9483 9.92614 51.7321 9.85156 51.4806 9.85156C51.1696 9.85156 50.9277 9.94744 50.7551 10.1392C50.5826 10.3288 50.4963 10.5728 50.4963 10.8711V14H49.5439V10.7369C49.5439 10.4705 49.4608 10.2564 49.2946 10.0945C49.1284 9.93253 48.9121 9.85156 48.6458 9.85156C48.4647 9.85156 48.2974 9.8995 48.144 9.99538C47.9927 10.0891 47.8702 10.2202 47.7765 10.3885C47.6848 10.5568 47.639 10.7518 47.639 10.9734V14H46.6834ZM54.6375 14V9.09091H55.5931V14H54.6375ZM55.1201 8.33345C54.9539 8.33345 54.8112 8.27805 54.6919 8.16726C54.5747 8.05433 54.5161 7.9201 54.5161 7.76456C54.5161 7.60689 54.5747 7.47266 54.6919 7.36186C54.8112 7.24893 54.9539 7.19247 55.1201 7.19247C55.2863 7.19247 55.428 7.24893 55.5452 7.36186C55.6645 7.47266 55.7242 7.60689 55.7242 7.76456C55.7242 7.9201 55.6645 8.05433 55.5452 8.16726C55.428 8.27805 55.2863 8.33345 55.1201 8.33345ZM57.8343 11.0852V14H56.8787V9.09091H57.796V9.88991H57.8567C57.9696 9.62997 58.1465 9.42116 58.3873 9.26349C58.6301 9.10582 58.9359 9.02699 59.3045 9.02699C59.639 9.02699 59.932 9.0973 60.1834 9.23793C60.4348 9.37642 60.6298 9.5831 60.7683 9.85795C60.9068 10.1328 60.976 10.4727 60.976 10.8775V14H60.0204V10.9925C60.0204 10.6367 59.9277 10.3587 59.7424 10.1584C59.557 9.95597 59.3024 9.85476 58.9785 9.85476C58.7569 9.85476 58.5598 9.9027 58.3873 9.99858C58.2168 10.0945 58.0815 10.2351 57.9814 10.4205C57.8833 10.6037 57.8343 10.8253 57.8343 11.0852ZM64.3159 15.9432C63.926 15.9432 63.5904 15.892 63.3091 15.7898C63.03 15.6875 62.802 15.5522 62.6252 15.3839C62.4483 15.2156 62.3162 15.0313 62.2289 14.831L63.0502 14.4922C63.1078 14.5859 63.1845 14.685 63.2804 14.7894C63.3784 14.896 63.5105 14.9865 63.6767 15.0611C63.845 15.1357 64.0613 15.1729 64.3255 15.1729C64.6877 15.1729 64.987 15.0845 65.2235 14.9077C65.46 14.733 65.5783 14.4538 65.5783 14.0703V13.1051H65.5176C65.46 13.2095 65.377 13.3256 65.2683 13.4535C65.1618 13.5813 65.0147 13.6921 64.8272 13.7859C64.6397 13.8796 64.3958 13.9265 64.0953 13.9265C63.7076 13.9265 63.3581 13.8359 63.0471 13.6548C62.7381 13.4716 62.4931 13.2021 62.312 12.8462C62.133 12.4883 62.0435 12.0483 62.0435 11.5263C62.0435 11.0043 62.1319 10.5568 62.3088 10.1839C62.4877 9.81108 62.7328 9.52557 63.0439 9.32741C63.3549 9.12713 63.7076 9.02699 64.1017 9.02699C64.4064 9.02699 64.6525 9.07812 64.84 9.1804C65.0275 9.28054 65.1735 9.39773 65.2779 9.53196C65.3844 9.66619 65.4664 9.78445 65.524 9.88672H65.5943V9.09091H66.5307V14.1087C66.5307 14.5305 66.4327 14.8768 66.2367 15.1474C66.0407 15.418 65.7754 15.6183 65.4409 15.7482C65.1085 15.8782 64.7335 15.9432 64.3159 15.9432ZM64.3063 13.1339C64.5811 13.1339 64.8134 13.07 65.003 12.9421C65.1948 12.8121 65.3397 12.6268 65.4377 12.386C65.5378 12.1431 65.5879 11.8523 65.5879 11.5135C65.5879 11.1832 65.5389 10.8924 65.4409 10.641C65.3429 10.3896 65.199 10.1935 65.0094 10.0529C64.8198 9.91016 64.5854 9.83878 64.3063 9.83878C64.0186 9.83878 63.7789 9.91335 63.5872 10.0625C63.3954 10.2095 63.2505 10.4098 63.1525 10.6634C63.0566 10.9169 63.0087 11.2003 63.0087 11.5135C63.0087 11.8352 63.0577 12.1175 63.1557 12.3604C63.2537 12.6033 63.3986 12.793 63.5904 12.9293C63.7843 13.0657 64.0229 13.1339 64.3063 13.1339ZM73.8728 10.2894L73.0067 10.4428C72.9704 10.332 72.9129 10.2266 72.8341 10.1264C72.7574 10.0263 72.653 9.94425 72.5209 9.88033C72.3888 9.81641 72.2236 9.78445 72.0255 9.78445C71.7549 9.78445 71.529 9.84517 71.3479 9.96662C71.1668 10.0859 71.0763 10.2404 71.0763 10.43C71.0763 10.5941 71.137 10.7262 71.2584 10.8263C71.3799 10.9265 71.5759 11.0085 71.8465 11.0724L72.6263 11.2514C73.078 11.3558 73.4147 11.5167 73.6363 11.734C73.8579 11.9513 73.9687 12.2337 73.9687 12.581C73.9687 12.875 73.8834 13.1371 73.713 13.3672C73.5447 13.5952 73.3092 13.7741 73.0067 13.9041C72.7062 14.0341 72.3579 14.0991 71.9616 14.0991C71.4118 14.0991 70.9633 13.9819 70.616 13.7475C70.2687 13.511 70.0557 13.1754 69.9768 12.7408L70.9005 12.6001C70.958 12.8409 71.0763 13.0231 71.2552 13.1467C71.4342 13.2681 71.6675 13.3288 71.9552 13.3288C72.2684 13.3288 72.5187 13.2638 72.7062 13.1339C72.8937 13.0018 72.9875 12.8409 72.9875 12.6513C72.9875 12.4979 72.93 12.369 72.8149 12.2646C72.702 12.1602 72.5283 12.0813 72.2939 12.0281L71.463 11.8459C71.0049 11.7415 70.6661 11.5753 70.4466 11.3473C70.2293 11.1193 70.1206 10.8306 70.1206 10.4812C70.1206 10.1914 70.2016 9.93785 70.3635 9.72053C70.5255 9.5032 70.7492 9.33381 71.0347 9.21236C71.3202 9.08878 71.6473 9.02699 72.0159 9.02699C72.5464 9.02699 72.964 9.14205 73.2687 9.37216C73.5734 9.60014 73.7748 9.90589 73.8728 10.2894ZM77.0872 14.0991C76.627 14.0991 76.2253 13.9936 75.8823 13.7827C75.5392 13.5717 75.2729 13.2766 75.0833 12.8974C74.8936 12.5181 74.7988 12.0749 74.7988 11.5678C74.7988 11.0586 74.8936 10.6133 75.0833 10.2319C75.2729 9.8505 75.5392 9.55433 75.8823 9.34339C76.2253 9.13246 76.627 9.02699 77.0872 9.02699C77.5474 9.02699 77.949 9.13246 78.2921 9.34339C78.6351 9.55433 78.9015 9.8505 79.0911 10.2319C79.2807 10.6133 79.3755 11.0586 79.3755 11.5678C79.3755 12.0749 79.2807 12.5181 79.0911 12.8974C78.9015 13.2766 78.6351 13.5717 78.2921 13.7827C77.949 13.9936 77.5474 14.0991 77.0872 14.0991ZM77.0904 13.2969C77.3887 13.2969 77.6358 13.218 77.8319 13.0604C78.0279 12.9027 78.1728 12.6928 78.2665 12.4308C78.3624 12.1687 78.4103 11.88 78.4103 11.5646C78.4103 11.2514 78.3624 10.9638 78.2665 10.7017C78.1728 10.4375 78.0279 10.2255 77.8319 10.0657C77.6358 9.90589 77.3887 9.82599 77.0904 9.82599C76.79 9.82599 76.5407 9.90589 76.3425 10.0657C76.1465 10.2255 76.0005 10.4375 75.9047 10.7017C75.8109 10.9638 75.764 11.2514 75.764 11.5646C75.764 11.88 75.8109 12.1687 75.9047 12.4308C76.0005 12.6928 76.1465 12.9027 76.3425 13.0604C76.5407 13.218 76.79 13.2969 77.0904 13.2969ZM82.51 14.0991C82.0498 14.0991 81.6482 13.9936 81.3051 13.7827C80.9621 13.5717 80.6958 13.2766 80.5061 12.8974C80.3165 12.5181 80.2217 12.0749 80.2217 11.5678C80.2217 11.0586 80.3165 10.6133 80.5061 10.2319C80.6958 9.8505 80.9621 9.55433 81.3051 9.34339C81.6482 9.13246 82.0498 9.02699 82.51 9.02699C82.9703 9.02699 83.3719 9.13246 83.7149 9.34339C84.058 9.55433 84.3243 9.8505 84.5139 10.2319C84.7036 10.6133 84.7984 11.0586 84.7984 11.5678C84.7984 12.0749 84.7036 12.5181 84.5139 12.8974C84.3243 13.2766 84.058 13.5717 83.7149 13.7827C83.3719 13.9936 82.9703 14.0991 82.51 14.0991ZM82.5132 13.2969C82.8115 13.2969 83.0587 13.218 83.2547 13.0604C83.4507 12.9027 83.5956 12.6928 83.6894 12.4308C83.7852 12.1687 83.8332 11.88 83.8332 11.5646C83.8332 11.2514 83.7852 10.9638 83.6894 10.7017C83.5956 10.4375 83.4507 10.2255 83.2547 10.0657C83.0587 9.90589 82.8115 9.82599 82.5132 9.82599C82.2128 9.82599 81.9635 9.90589 81.7654 10.0657C81.5693 10.2255 81.4234 10.4375 81.3275 10.7017C81.2338 10.9638 81.1869 11.2514 81.1869 11.5646C81.1869 11.88 81.2338 12.1687 81.3275 12.4308C81.4234 12.6928 81.5693 12.9027 81.7654 13.0604C81.9635 13.218 82.2128 13.2969 82.5132 13.2969ZM86.8207 11.0852V14H85.8651V9.09091H86.7823V9.88991H86.843C86.956 9.62997 87.1328 9.42116 87.3736 9.26349C87.6165 9.10582 87.9222 9.02699 88.2908 9.02699C88.6254 9.02699 88.9183 9.0973 89.1697 9.23793C89.4212 9.37642 89.6161 9.5831 89.7546 9.85795C89.8931 10.1328 89.9624 10.4727 89.9624 10.8775V14H89.0067V10.9925C89.0067 10.6367 88.9141 10.3587 88.7287 10.1584C88.5433 9.95597 88.2887 9.85476 87.9648 9.85476C87.7433 9.85476 87.5462 9.9027 87.3736 9.99858C87.2031 10.0945 87.0678 10.2351 86.9677 10.4205C86.8697 10.6037 86.8207 10.8253 86.8207 11.0852ZM95.6936 14.0991C95.2334 14.0991 94.8318 13.9936 94.4887 13.7827C94.1457 13.5717 93.8794 13.2766 93.6897 12.8974C93.5001 12.5181 93.4053 12.0749 93.4053 11.5678C93.4053 11.0586 93.5001 10.6133 93.6897 10.2319C93.8794 9.8505 94.1457 9.55433 94.4887 9.34339C94.8318 9.13246 95.2334 9.02699 95.6936 9.02699C96.1539 9.02699 96.5555 9.13246 96.8985 9.34339C97.2416 9.55433 97.5079 9.8505 97.6975 10.2319C97.8872 10.6133 97.982 11.0586 97.982 11.5678C97.982 12.0749 97.8872 12.5181 97.6975 12.8974C97.5079 13.2766 97.2416 13.5717 96.8985 13.7827C96.5555 13.9936 96.1539 14.0991 95.6936 14.0991ZM95.6968 13.2969C95.9951 13.2969 96.2423 13.218 96.4383 13.0604C96.6343 12.9027 96.7792 12.6928 96.873 12.4308C96.9688 12.1687 97.0168 11.88 97.0168 11.5646C97.0168 11.2514 96.9688 10.9638 96.873 10.7017C96.7792 10.4375 96.6343 10.2255 96.4383 10.0657C96.2423 9.90589 95.9951 9.82599 95.6968 9.82599C95.3964 9.82599 95.1471 9.90589 94.949 10.0657C94.7529 10.2255 94.607 10.4375 94.5111 10.7017C94.4173 10.9638 94.3705 11.2514 94.3705 11.5646C94.3705 11.88 94.4173 12.1687 94.5111 12.4308C94.607 12.6928 94.7529 12.9027 94.949 13.0604C95.1471 13.218 95.3964 13.2969 95.6968 13.2969ZM100.004 11.0852V14H99.0487V9.09091H99.9659V9.88991H100.027C100.14 9.62997 100.316 9.42116 100.557 9.26349C100.8 9.10582 101.106 9.02699 101.474 9.02699C101.809 9.02699 102.102 9.0973 102.353 9.23793C102.605 9.37642 102.8 9.5831 102.938 9.85795C103.077 10.1328 103.146 10.4727 103.146 10.8775V14H102.19V10.9925C102.19 10.6367 102.098 10.3587 101.912 10.1584C101.727 9.95597 101.472 9.85476 101.148 9.85476C100.927 9.85476 100.73 9.9027 100.557 9.99858C100.387 10.0945 100.251 10.2351 100.151 10.4205C100.053 10.6037 100.004 10.8253 100.004 11.0852Z" fill="black"/>
</svg>
