<svg width="25" height="25" viewBox="0 0 25 25" fill="none" xmlns="http://www.w3.org/2000/svg">
<path d="M21.6088 13.156L14.8588 19.906C14.718 20.0468 14.5271 20.1258 14.3281 20.1258C14.1291 20.1258 13.9382 20.0468 13.7975 19.906C13.6568 19.7653 13.5777 19.5744 13.5777 19.3754C13.5777 19.1764 13.6568 18.9855 13.7975 18.8448L19.2678 13.3754H4.57812C4.37921 13.3754 4.18845 13.2964 4.0478 13.1557C3.90714 13.0151 3.82812 12.8243 3.82812 12.6254C3.82812 12.4265 3.90714 12.2357 4.0478 12.0951C4.18845 11.9544 4.37921 11.8754 4.57812 11.8754H19.2678L13.7975 6.40604C13.6568 6.26531 13.5777 6.07444 13.5777 5.87542C13.5777 5.67639 13.6568 5.48552 13.7975 5.34479C13.9382 5.20406 14.1291 5.125 14.3281 5.125C14.5271 5.125 14.718 5.20406 14.8588 5.34479L21.6088 12.0948C21.6785 12.1644 21.7338 12.2472 21.7715 12.3382C21.8093 12.4293 21.8287 12.5269 21.8287 12.6254C21.8287 12.724 21.8093 12.8216 21.7715 12.9126C21.7338 13.0037 21.6785 13.0864 21.6088 13.156Z" fill="black"/>
</svg>
