<svg width="703" height="703" viewBox="0 0 703 703" fill="none" xmlns="http://www.w3.org/2000/svg">
<rect width="703" height="703" rx="50" fill="#EFEFEF"/>
<path d="M148 536C148 528.268 154.268 522 162 522H293C300.732 522 307 528.268 307 536V622C307 627.523 302.523 632 297 632H158C152.477 632 148 627.523 148 622V536Z" fill="#B1AFAA"/>
<path d="M421 206C421 198.268 427.268 192 435 192H566C573.732 192 580 198.268 580 206V622C580 627.523 575.523 632 570 632H431C425.477 632 421 627.523 421 622V206Z" fill="url(#paint0_linear_8351_6163)"/>
<path d="M458.408 273.069V266.136L478.831 233.868H484.613V243.739H481.087L467.339 265.525V265.901H495.847V273.069H458.408ZM481.369 282V270.954L481.463 267.852V233.868H489.689V282H481.369ZM510.406 245.901L517.692 259.226L525.095 245.901H534.096L523.215 263.95L534.284 282H525.33L517.692 269.003L510.124 282H501.099L512.098 263.95L501.381 245.901H510.406Z" fill="white"/>
<path d="M426.438 162V148.909H428.413V154.598H434.94V148.909H436.921V162H434.94V156.292H428.413V162H426.438ZM442.501 162.217C441.879 162.217 441.317 162.102 440.814 161.872C440.311 161.638 439.913 161.299 439.619 160.856C439.329 160.413 439.184 159.869 439.184 159.226C439.184 158.672 439.29 158.216 439.504 157.858C439.717 157.5 440.004 157.217 440.366 157.008C440.729 156.799 441.134 156.641 441.581 156.535C442.028 156.428 442.484 156.347 442.949 156.292C443.537 156.224 444.014 156.168 444.381 156.126C444.747 156.079 445.013 156.004 445.18 155.902C445.346 155.8 445.429 155.634 445.429 155.403V155.359C445.429 154.8 445.271 154.368 444.956 154.061C444.645 153.754 444.18 153.601 443.562 153.601C442.919 153.601 442.412 153.744 442.041 154.029C441.675 154.31 441.421 154.624 441.281 154.969L439.484 154.56C439.697 153.963 440.009 153.482 440.418 153.115C440.831 152.744 441.306 152.476 441.843 152.31C442.38 152.139 442.945 152.054 443.537 152.054C443.929 152.054 444.344 152.101 444.783 152.195C445.227 152.284 445.64 152.45 446.023 152.693C446.411 152.936 446.729 153.283 446.976 153.735C447.223 154.183 447.347 154.764 447.347 155.48V162H445.48V160.658H445.403C445.28 160.905 445.094 161.148 444.847 161.386C444.6 161.625 444.283 161.823 443.895 161.981C443.507 162.138 443.043 162.217 442.501 162.217ZM442.917 160.683C443.445 160.683 443.897 160.579 444.272 160.37C444.651 160.161 444.939 159.888 445.135 159.552C445.335 159.211 445.435 158.847 445.435 158.459V157.193C445.367 157.261 445.235 157.325 445.039 157.385C444.847 157.44 444.628 157.489 444.381 157.532C444.134 157.57 443.893 157.607 443.658 157.641C443.424 157.67 443.228 157.696 443.07 157.717C442.7 157.764 442.361 157.843 442.054 157.954C441.751 158.065 441.509 158.224 441.325 158.433C441.146 158.638 441.057 158.911 441.057 159.251C441.057 159.724 441.232 160.082 441.581 160.325C441.93 160.564 442.376 160.683 442.917 160.683ZM454.475 152.182V153.716H449.112V152.182H454.475ZM450.551 149.83H452.462V159.117C452.462 159.488 452.517 159.767 452.628 159.955C452.739 160.138 452.882 160.263 453.056 160.332C453.235 160.396 453.429 160.428 453.638 160.428C453.791 160.428 453.926 160.417 454.041 160.396C454.156 160.374 454.245 160.357 454.309 160.344L454.654 161.923C454.544 161.966 454.386 162.009 454.181 162.051C453.977 162.098 453.721 162.124 453.414 162.128C452.911 162.136 452.443 162.047 452.008 161.859C451.573 161.672 451.222 161.382 450.953 160.99C450.685 160.598 450.551 160.106 450.551 159.513V149.83ZM460.62 162.198C459.669 162.198 458.851 161.983 458.165 161.553C457.483 161.118 456.959 160.519 456.593 159.756C456.226 158.994 456.043 158.12 456.043 157.136C456.043 156.138 456.23 155.259 456.605 154.496C456.98 153.729 457.509 153.13 458.191 152.7C458.873 152.269 459.676 152.054 460.6 152.054C461.346 152.054 462.011 152.192 462.595 152.469C463.179 152.742 463.65 153.126 464.007 153.62C464.37 154.114 464.585 154.692 464.653 155.352H462.793C462.691 154.892 462.456 154.496 462.09 154.163C461.728 153.831 461.242 153.665 460.632 153.665C460.1 153.665 459.633 153.805 459.233 154.087C458.836 154.364 458.527 154.76 458.306 155.276C458.084 155.787 457.973 156.392 457.973 157.091C457.973 157.807 458.082 158.425 458.299 158.945C458.517 159.464 458.824 159.867 459.22 160.153C459.62 160.438 460.091 160.581 460.632 160.581C460.995 160.581 461.323 160.515 461.617 160.383C461.915 160.246 462.164 160.053 462.365 159.801C462.569 159.55 462.712 159.247 462.793 158.893H464.653C464.585 159.528 464.378 160.095 464.033 160.594C463.688 161.092 463.225 161.484 462.646 161.77C462.071 162.055 461.395 162.198 460.62 162.198ZM468.608 156.17V162H466.697V148.909H468.583V153.78H468.704C468.934 153.251 469.286 152.832 469.759 152.521C470.232 152.21 470.85 152.054 471.612 152.054C472.286 152.054 472.874 152.192 473.377 152.469C473.884 152.746 474.276 153.16 474.553 153.71C474.834 154.255 474.975 154.937 474.975 155.755V162H473.063V155.985C473.063 155.265 472.878 154.707 472.507 154.31C472.137 153.91 471.621 153.71 470.96 153.71C470.509 153.71 470.104 153.805 469.746 153.997C469.392 154.189 469.113 154.47 468.909 154.841C468.708 155.207 468.608 155.651 468.608 156.17ZM477.525 162V152.182H479.436V162H477.525ZM478.49 150.667C478.158 150.667 477.872 150.556 477.634 150.335C477.399 150.109 477.282 149.84 477.282 149.529C477.282 149.214 477.399 148.945 477.634 148.724C477.872 148.498 478.158 148.385 478.49 148.385C478.823 148.385 479.106 148.498 479.34 148.724C479.579 148.945 479.698 149.214 479.698 149.529C479.698 149.84 479.579 150.109 479.34 150.335C479.106 150.556 478.823 150.667 478.49 150.667ZM483.919 156.17V162H482.007V152.182H483.842V153.78H483.963C484.189 153.26 484.543 152.842 485.025 152.527C485.51 152.212 486.122 152.054 486.859 152.054C487.528 152.054 488.114 152.195 488.617 152.476C489.12 152.753 489.51 153.166 489.787 153.716C490.064 154.266 490.202 154.945 490.202 155.755V162H488.291V155.985C488.291 155.273 488.105 154.717 487.735 154.317C487.364 153.912 486.855 153.71 486.207 153.71C485.764 153.71 485.37 153.805 485.025 153.997C484.684 154.189 484.413 154.47 484.213 154.841C484.017 155.207 483.919 155.651 483.919 156.17ZM496.882 165.886C496.102 165.886 495.431 165.784 494.868 165.58C494.31 165.375 493.854 165.104 493.5 164.768C493.147 164.431 492.882 164.063 492.708 163.662L494.35 162.984C494.466 163.172 494.619 163.37 494.811 163.579C495.007 163.792 495.271 163.973 495.603 164.122C495.94 164.271 496.373 164.346 496.901 164.346C497.625 164.346 498.224 164.169 498.697 163.815C499.17 163.466 499.407 162.908 499.407 162.141V160.21H499.285C499.17 160.419 499.004 160.651 498.787 160.907C498.574 161.163 498.279 161.384 497.904 161.572C497.529 161.759 497.042 161.853 496.441 161.853C495.665 161.853 494.966 161.672 494.344 161.31C493.726 160.943 493.236 160.404 492.874 159.692C492.516 158.977 492.337 158.097 492.337 157.053C492.337 156.009 492.514 155.114 492.868 154.368C493.225 153.622 493.716 153.051 494.338 152.655C494.96 152.254 495.665 152.054 496.453 152.054C497.063 152.054 497.555 152.156 497.93 152.361C498.305 152.561 498.597 152.795 498.806 153.064C499.019 153.332 499.183 153.569 499.298 153.773H499.439V152.182H501.311V162.217C501.311 163.061 501.115 163.754 500.723 164.295C500.331 164.836 499.801 165.237 499.132 165.496C498.467 165.756 497.717 165.886 496.882 165.886ZM496.863 160.268C497.412 160.268 497.877 160.14 498.256 159.884C498.64 159.624 498.929 159.254 499.125 158.772C499.326 158.286 499.426 157.705 499.426 157.027C499.426 156.366 499.328 155.785 499.132 155.282C498.936 154.779 498.648 154.387 498.269 154.106C497.89 153.82 497.421 153.678 496.863 153.678C496.287 153.678 495.808 153.827 495.424 154.125C495.041 154.419 494.751 154.82 494.555 155.327C494.363 155.834 494.267 156.401 494.267 157.027C494.267 157.67 494.365 158.235 494.561 158.721C494.757 159.207 495.047 159.586 495.431 159.859C495.819 160.131 496.296 160.268 496.863 160.268ZM515.932 152.348C515.863 151.743 515.582 151.274 515.088 150.942C514.594 150.605 513.971 150.437 513.221 150.437C512.684 150.437 512.22 150.522 511.828 150.692C511.436 150.859 511.131 151.089 510.914 151.383C510.701 151.673 510.594 152.003 510.594 152.374C510.594 152.685 510.667 152.953 510.812 153.179C510.961 153.405 511.155 153.594 511.393 153.748C511.636 153.897 511.896 154.023 512.173 154.125C512.45 154.223 512.716 154.304 512.972 154.368L514.251 154.7C514.668 154.803 515.096 154.941 515.535 155.116C515.974 155.29 516.381 155.521 516.756 155.806C517.131 156.092 517.434 156.445 517.664 156.867C517.898 157.289 518.015 157.794 518.015 158.382C518.015 159.124 517.824 159.782 517.44 160.357C517.061 160.933 516.509 161.386 515.785 161.719C515.064 162.051 514.193 162.217 513.17 162.217C512.19 162.217 511.342 162.062 510.626 161.751C509.91 161.44 509.35 160.999 508.945 160.428C508.54 159.852 508.317 159.17 508.274 158.382H510.256C510.294 158.855 510.447 159.249 510.716 159.565C510.988 159.876 511.336 160.108 511.758 160.261C512.184 160.411 512.65 160.485 513.157 160.485C513.716 160.485 514.212 160.398 514.647 160.223C515.086 160.044 515.431 159.797 515.682 159.482C515.934 159.162 516.059 158.789 516.059 158.363C516.059 157.975 515.949 157.658 515.727 157.411C515.51 157.163 515.214 156.959 514.839 156.797C514.468 156.635 514.048 156.492 513.579 156.369L512.032 155.947C510.984 155.661 510.153 155.241 509.54 154.688C508.93 154.134 508.626 153.401 508.626 152.489C508.626 151.734 508.83 151.076 509.239 150.513C509.648 149.951 510.202 149.514 510.901 149.203C511.6 148.888 512.388 148.73 513.266 148.73C514.153 148.73 514.934 148.886 515.612 149.197C516.294 149.508 516.831 149.936 517.223 150.482C517.615 151.023 517.819 151.645 517.836 152.348H515.932ZM523.08 162.217C522.457 162.217 521.895 162.102 521.392 161.872C520.889 161.638 520.491 161.299 520.197 160.856C519.907 160.413 519.762 159.869 519.762 159.226C519.762 158.672 519.869 158.216 520.082 157.858C520.295 157.5 520.582 157.217 520.945 157.008C521.307 156.799 521.712 156.641 522.159 156.535C522.607 156.428 523.063 156.347 523.527 156.292C524.115 156.224 524.592 156.168 524.959 156.126C525.325 156.079 525.592 156.004 525.758 155.902C525.924 155.8 526.007 155.634 526.007 155.403V155.359C526.007 154.8 525.849 154.368 525.534 154.061C525.223 153.754 524.759 153.601 524.141 153.601C523.497 153.601 522.99 153.744 522.619 154.029C522.253 154.31 521.999 154.624 521.859 154.969L520.062 154.56C520.276 153.963 520.587 153.482 520.996 153.115C521.409 152.744 521.884 152.476 522.421 152.31C522.958 152.139 523.523 152.054 524.115 152.054C524.507 152.054 524.923 152.101 525.362 152.195C525.805 152.284 526.218 152.45 526.602 152.693C526.989 152.936 527.307 153.283 527.554 153.735C527.801 154.183 527.925 154.764 527.925 155.48V162H526.058V160.658H525.982C525.858 160.905 525.673 161.148 525.425 161.386C525.178 161.625 524.861 161.823 524.473 161.981C524.085 162.138 523.621 162.217 523.08 162.217ZM523.495 160.683C524.023 160.683 524.475 160.579 524.85 160.37C525.229 160.161 525.517 159.888 525.713 159.552C525.913 159.211 526.013 158.847 526.013 158.459V157.193C525.945 157.261 525.813 157.325 525.617 157.385C525.425 157.44 525.206 157.489 524.959 157.532C524.712 157.57 524.471 157.607 524.237 157.641C524.002 157.67 523.806 157.696 523.648 157.717C523.278 157.764 522.939 157.843 522.632 157.954C522.33 158.065 522.087 158.224 521.903 158.433C521.724 158.638 521.635 158.911 521.635 159.251C521.635 159.724 521.81 160.082 522.159 160.325C522.509 160.564 522.954 160.683 523.495 160.683ZM538.518 152.182L534.958 162H532.912L529.345 152.182H531.397L533.884 159.737H533.986L536.466 152.182H538.518ZM540.314 162V152.182H542.225V162H540.314ZM541.279 150.667C540.947 150.667 540.661 150.556 540.423 150.335C540.188 150.109 540.071 149.84 540.071 149.529C540.071 149.214 540.188 148.945 540.423 148.724C540.661 148.498 540.947 148.385 541.279 148.385C541.612 148.385 541.895 148.498 542.129 148.724C542.368 148.945 542.487 149.214 542.487 149.529C542.487 149.84 542.368 150.109 542.129 150.335C541.895 150.556 541.612 150.667 541.279 150.667ZM546.708 156.17V162H544.797V152.182H546.631V153.78H546.752C546.978 153.26 547.332 152.842 547.814 152.527C548.299 152.212 548.911 152.054 549.648 152.054C550.317 152.054 550.903 152.195 551.406 152.476C551.909 152.753 552.299 153.166 552.576 153.716C552.853 154.266 552.991 154.945 552.991 155.755V162H551.08V155.985C551.08 155.273 550.895 154.717 550.524 154.317C550.153 153.912 549.644 153.71 548.996 153.71C548.553 153.71 548.159 153.805 547.814 153.997C547.473 154.189 547.202 154.47 547.002 154.841C546.806 155.207 546.708 155.651 546.708 156.17ZM559.671 165.886C558.891 165.886 558.22 165.784 557.657 165.58C557.099 165.375 556.643 165.104 556.289 164.768C555.936 164.431 555.672 164.063 555.497 163.662L557.14 162.984C557.255 163.172 557.408 163.37 557.6 163.579C557.796 163.792 558.06 163.973 558.392 164.122C558.729 164.271 559.162 164.346 559.69 164.346C560.414 164.346 561.013 164.169 561.486 163.815C561.959 163.466 562.196 162.908 562.196 162.141V160.21H562.074C561.959 160.419 561.793 160.651 561.576 160.907C561.363 161.163 561.069 161.384 560.694 161.572C560.319 161.759 559.831 161.853 559.23 161.853C558.454 161.853 557.755 161.672 557.133 161.31C556.515 160.943 556.025 160.404 555.663 159.692C555.305 158.977 555.126 158.097 555.126 157.053C555.126 156.009 555.303 155.114 555.657 154.368C556.015 153.622 556.505 153.051 557.127 152.655C557.749 152.254 558.454 152.054 559.243 152.054C559.852 152.054 560.344 152.156 560.719 152.361C561.094 152.561 561.386 152.795 561.595 153.064C561.808 153.332 561.972 153.569 562.087 153.773H562.228V152.182H564.1V162.217C564.1 163.061 563.904 163.754 563.512 164.295C563.12 164.836 562.59 165.237 561.921 165.496C561.256 165.756 560.506 165.886 559.671 165.886ZM559.652 160.268C560.201 160.268 560.666 160.14 561.045 159.884C561.429 159.624 561.718 159.254 561.914 158.772C562.115 158.286 562.215 157.705 562.215 157.027C562.215 156.366 562.117 155.785 561.921 155.282C561.725 154.779 561.437 154.387 561.058 154.106C560.679 153.82 560.21 153.678 559.652 153.678C559.076 153.678 558.597 153.827 558.213 154.125C557.83 154.419 557.54 154.82 557.344 155.327C557.152 155.834 557.056 156.401 557.056 157.027C557.056 157.67 557.154 158.235 557.35 158.721C557.547 159.207 557.836 159.586 558.22 159.859C558.608 160.131 559.085 160.268 559.652 160.268ZM574.021 154.579L572.289 154.886C572.216 154.664 572.101 154.453 571.944 154.253C571.79 154.053 571.581 153.888 571.317 153.761C571.053 153.633 570.723 153.569 570.326 153.569C569.785 153.569 569.333 153.69 568.971 153.933C568.609 154.172 568.428 154.481 568.428 154.86C568.428 155.188 568.549 155.452 568.792 155.653C569.035 155.853 569.427 156.017 569.968 156.145L571.528 156.503C572.431 156.712 573.105 157.033 573.548 157.468C573.991 157.903 574.213 158.467 574.213 159.162C574.213 159.75 574.042 160.274 573.701 160.734C573.365 161.19 572.894 161.548 572.289 161.808C571.688 162.068 570.991 162.198 570.199 162.198C569.099 162.198 568.202 161.964 567.507 161.495C566.813 161.022 566.387 160.351 566.229 159.482L568.076 159.2C568.191 159.682 568.428 160.046 568.786 160.293C569.144 160.536 569.61 160.658 570.186 160.658C570.812 160.658 571.313 160.528 571.688 160.268C572.063 160.004 572.25 159.682 572.25 159.303C572.25 158.996 572.135 158.738 571.905 158.529C571.679 158.32 571.332 158.163 570.863 158.056L569.201 157.692C568.285 157.483 567.608 157.151 567.169 156.695C566.734 156.239 566.517 155.661 566.517 154.962C566.517 154.383 566.679 153.876 567.002 153.441C567.326 153.006 567.774 152.668 568.345 152.425C568.916 152.178 569.57 152.054 570.307 152.054C571.368 152.054 572.203 152.284 572.813 152.744C573.422 153.2 573.825 153.812 574.021 154.579Z" fill="black"/>
<path d="M160.021 467H157.924L162.635 453.909H164.917L169.628 467H167.531L163.83 456.287H163.728L160.021 467ZM160.372 461.874H167.173V463.536H160.372V461.874ZM178.534 457.182L174.973 467H172.928L169.361 457.182H171.413L173.899 464.737H174.002L176.482 457.182H178.534ZM184.227 467.198C183.26 467.198 182.427 466.991 181.728 466.578C181.033 466.161 180.496 465.575 180.117 464.82C179.742 464.062 179.555 463.173 179.555 462.155C179.555 461.149 179.742 460.263 180.117 459.496C180.496 458.729 181.025 458.13 181.702 457.7C182.384 457.269 183.181 457.054 184.093 457.054C184.647 457.054 185.184 457.146 185.704 457.329C186.224 457.512 186.69 457.8 187.104 458.192C187.517 458.584 187.843 459.093 188.082 459.719C188.32 460.342 188.44 461.098 188.44 461.989V462.666H180.635V461.234H186.567C186.567 460.732 186.464 460.286 186.26 459.898C186.055 459.506 185.768 459.197 185.397 458.972C185.031 458.746 184.6 458.633 184.106 458.633C183.569 458.633 183.1 458.765 182.7 459.029C182.303 459.289 181.996 459.63 181.779 460.052C181.566 460.469 181.46 460.923 181.46 461.413V462.532C181.46 463.188 181.575 463.746 181.805 464.207C182.039 464.667 182.365 465.018 182.783 465.261C183.2 465.5 183.688 465.619 184.246 465.619C184.609 465.619 184.939 465.568 185.237 465.466C185.536 465.359 185.793 465.202 186.011 464.993C186.228 464.784 186.394 464.526 186.509 464.219L188.318 464.545C188.173 465.078 187.913 465.545 187.538 465.945C187.168 466.342 186.701 466.651 186.138 466.872C185.58 467.089 184.943 467.198 184.227 467.198ZM190.56 467V457.182H192.407V458.741H192.51C192.689 458.213 193.004 457.798 193.456 457.495C193.912 457.188 194.427 457.035 195.003 457.035C195.122 457.035 195.263 457.039 195.425 457.048C195.591 457.056 195.721 457.067 195.814 457.08V458.908C195.738 458.886 195.601 458.863 195.405 458.837C195.209 458.808 195.013 458.793 194.817 458.793C194.366 458.793 193.963 458.888 193.609 459.08C193.26 459.268 192.983 459.53 192.778 459.866C192.574 460.199 192.471 460.578 192.471 461.004V467H190.56ZM200.238 467.217C199.616 467.217 199.053 467.102 198.55 466.872C198.047 466.638 197.649 466.299 197.355 465.856C197.065 465.413 196.92 464.869 196.92 464.226C196.92 463.672 197.027 463.216 197.24 462.858C197.453 462.5 197.741 462.217 198.103 462.008C198.465 461.799 198.87 461.641 199.317 461.535C199.765 461.428 200.221 461.347 200.685 461.292C201.273 461.224 201.751 461.168 202.117 461.126C202.483 461.079 202.75 461.004 202.916 460.902C203.082 460.8 203.165 460.634 203.165 460.403V460.359C203.165 459.8 203.008 459.368 202.692 459.061C202.381 458.754 201.917 458.601 201.299 458.601C200.655 458.601 200.148 458.744 199.778 459.029C199.411 459.31 199.157 459.624 199.017 459.969L197.221 459.56C197.434 458.963 197.745 458.482 198.154 458.115C198.567 457.744 199.042 457.476 199.579 457.31C200.116 457.139 200.681 457.054 201.273 457.054C201.665 457.054 202.081 457.101 202.52 457.195C202.963 457.284 203.376 457.45 203.76 457.693C204.148 457.936 204.465 458.283 204.712 458.735C204.959 459.183 205.083 459.764 205.083 460.48V467H203.216V465.658H203.14C203.016 465.905 202.831 466.148 202.584 466.386C202.336 466.625 202.019 466.823 201.631 466.981C201.243 467.138 200.779 467.217 200.238 467.217ZM200.653 465.683C201.182 465.683 201.633 465.579 202.008 465.37C202.388 465.161 202.675 464.888 202.871 464.552C203.072 464.211 203.172 463.847 203.172 463.459V462.193C203.104 462.261 202.971 462.325 202.775 462.385C202.584 462.44 202.364 462.489 202.117 462.532C201.87 462.57 201.629 462.607 201.395 462.641C201.16 462.67 200.964 462.696 200.807 462.717C200.436 462.764 200.097 462.843 199.79 462.954C199.488 463.065 199.245 463.224 199.062 463.433C198.883 463.638 198.793 463.911 198.793 464.251C198.793 464.724 198.968 465.082 199.317 465.325C199.667 465.564 200.112 465.683 200.653 465.683ZM211.745 470.886C210.965 470.886 210.294 470.784 209.732 470.58C209.173 470.375 208.717 470.104 208.364 469.768C208.01 469.431 207.746 469.063 207.571 468.662L209.214 467.984C209.329 468.172 209.482 468.37 209.674 468.579C209.87 468.792 210.134 468.973 210.467 469.122C210.803 469.271 211.236 469.346 211.764 469.346C212.489 469.346 213.087 469.169 213.56 468.815C214.033 468.466 214.27 467.908 214.27 467.141V465.21H214.148C214.033 465.419 213.867 465.651 213.65 465.907C213.437 466.163 213.143 466.384 212.768 466.572C212.393 466.759 211.905 466.853 211.304 466.853C210.528 466.853 209.83 466.672 209.207 466.31C208.589 465.943 208.099 465.404 207.737 464.692C207.379 463.977 207.2 463.097 207.2 462.053C207.2 461.009 207.377 460.114 207.731 459.368C208.089 458.622 208.579 458.051 209.201 457.655C209.823 457.254 210.528 457.054 211.317 457.054C211.926 457.054 212.418 457.156 212.793 457.361C213.168 457.561 213.46 457.795 213.669 458.064C213.882 458.332 214.046 458.569 214.161 458.773H214.302V457.182H216.175V467.217C216.175 468.061 215.979 468.754 215.587 469.295C215.195 469.836 214.664 470.237 213.995 470.496C213.33 470.756 212.58 470.886 211.745 470.886ZM211.726 465.268C212.276 465.268 212.74 465.14 213.119 464.884C213.503 464.624 213.793 464.254 213.989 463.772C214.189 463.286 214.289 462.705 214.289 462.027C214.289 461.366 214.191 460.785 213.995 460.282C213.799 459.779 213.511 459.387 213.132 459.106C212.753 458.82 212.284 458.678 211.726 458.678C211.151 458.678 210.671 458.827 210.288 459.125C209.904 459.419 209.614 459.82 209.418 460.327C209.227 460.834 209.131 461.401 209.131 462.027C209.131 462.67 209.229 463.235 209.425 463.721C209.621 464.207 209.911 464.586 210.294 464.859C210.682 465.131 211.159 465.268 211.726 465.268ZM222.969 467.198C222.002 467.198 221.169 466.991 220.47 466.578C219.776 466.161 219.239 465.575 218.859 464.82C218.484 464.062 218.297 463.173 218.297 462.155C218.297 461.149 218.484 460.263 218.859 459.496C219.239 458.729 219.767 458.13 220.445 457.7C221.126 457.269 221.923 457.054 222.835 457.054C223.389 457.054 223.926 457.146 224.446 457.329C224.966 457.512 225.433 457.8 225.846 458.192C226.259 458.584 226.585 459.093 226.824 459.719C227.063 460.342 227.182 461.098 227.182 461.989V462.666H219.377V461.234H225.309C225.309 460.732 225.207 460.286 225.002 459.898C224.798 459.506 224.51 459.197 224.139 458.972C223.773 458.746 223.342 458.633 222.848 458.633C222.311 458.633 221.842 458.765 221.442 459.029C221.045 459.289 220.739 459.63 220.521 460.052C220.308 460.469 220.202 460.923 220.202 461.413V462.532C220.202 463.188 220.317 463.746 220.547 464.207C220.781 464.667 221.107 465.018 221.525 465.261C221.942 465.5 222.43 465.619 222.989 465.619C223.351 465.619 223.681 465.568 223.979 465.466C224.278 465.359 224.536 465.202 224.753 464.993C224.97 464.784 225.136 464.526 225.251 464.219L227.06 464.545C226.915 465.078 226.656 465.545 226.281 465.945C225.91 466.342 225.443 466.651 224.881 466.872C224.322 467.089 223.685 467.198 222.969 467.198ZM241.423 459.579L239.691 459.886C239.619 459.664 239.504 459.453 239.346 459.253C239.192 459.053 238.984 458.888 238.719 458.761C238.455 458.633 238.125 458.569 237.729 458.569C237.188 458.569 236.736 458.69 236.374 458.933C236.011 459.172 235.83 459.481 235.83 459.86C235.83 460.188 235.952 460.452 236.195 460.653C236.438 460.853 236.83 461.017 237.371 461.145L238.93 461.503C239.834 461.712 240.507 462.033 240.95 462.468C241.393 462.903 241.615 463.467 241.615 464.162C241.615 464.75 241.445 465.274 241.104 465.734C240.767 466.19 240.296 466.548 239.691 466.808C239.09 467.068 238.393 467.198 237.601 467.198C236.501 467.198 235.604 466.964 234.91 466.495C234.215 466.022 233.789 465.351 233.631 464.482L235.479 464.2C235.594 464.682 235.83 465.046 236.188 465.293C236.546 465.536 237.013 465.658 237.588 465.658C238.214 465.658 238.715 465.528 239.09 465.268C239.465 465.004 239.653 464.682 239.653 464.303C239.653 463.996 239.538 463.738 239.308 463.529C239.082 463.32 238.734 463.163 238.266 463.056L236.604 462.692C235.688 462.483 235.01 462.151 234.571 461.695C234.136 461.239 233.919 460.661 233.919 459.962C233.919 459.383 234.081 458.876 234.405 458.441C234.729 458.006 235.176 457.668 235.747 457.425C236.318 457.178 236.972 457.054 237.71 457.054C238.771 457.054 239.606 457.284 240.215 457.744C240.825 458.2 241.227 458.812 241.423 459.579ZM246.574 467.217C245.952 467.217 245.389 467.102 244.886 466.872C244.383 466.638 243.985 466.299 243.691 465.856C243.401 465.413 243.256 464.869 243.256 464.226C243.256 463.672 243.363 463.216 243.576 462.858C243.789 462.5 244.077 462.217 244.439 462.008C244.801 461.799 245.206 461.641 245.653 461.535C246.101 461.428 246.557 461.347 247.021 461.292C247.609 461.224 248.086 461.168 248.453 461.126C248.819 461.079 249.086 461.004 249.252 460.902C249.418 460.8 249.501 460.634 249.501 460.403V460.359C249.501 459.8 249.344 459.368 249.028 459.061C248.717 458.754 248.253 458.601 247.635 458.601C246.991 458.601 246.484 458.744 246.113 459.029C245.747 459.31 245.493 459.624 245.353 459.969L243.557 459.56C243.77 458.963 244.081 458.482 244.49 458.115C244.903 457.744 245.378 457.476 245.915 457.31C246.452 457.139 247.017 457.054 247.609 457.054C248.001 457.054 248.417 457.101 248.856 457.195C249.299 457.284 249.712 457.45 250.096 457.693C250.483 457.936 250.801 458.283 251.048 458.735C251.295 459.183 251.419 459.764 251.419 460.48V467H249.552V465.658H249.476C249.352 465.905 249.167 466.148 248.92 466.386C248.672 466.625 248.355 466.823 247.967 466.981C247.579 467.138 247.115 467.217 246.574 467.217ZM246.989 465.683C247.518 465.683 247.969 465.579 248.344 465.37C248.724 465.161 249.011 464.888 249.207 464.552C249.407 464.211 249.508 463.847 249.508 463.459V462.193C249.439 462.261 249.307 462.325 249.111 462.385C248.92 462.44 248.7 462.489 248.453 462.532C248.206 462.57 247.965 462.607 247.731 462.641C247.496 462.67 247.3 462.696 247.143 462.717C246.772 462.764 246.433 462.843 246.126 462.954C245.824 463.065 245.581 463.224 245.398 463.433C245.219 463.638 245.129 463.911 245.129 464.251C245.129 464.724 245.304 465.082 245.653 465.325C246.003 465.564 246.448 465.683 246.989 465.683ZM262.012 457.182L258.452 467H256.406L252.839 457.182H254.891L257.378 464.737H257.48L259.96 457.182H262.012ZM263.808 467V457.182H265.719V467H263.808ZM264.773 455.667C264.441 455.667 264.156 455.556 263.917 455.335C263.683 455.109 263.565 454.84 263.565 454.529C263.565 454.214 263.683 453.945 263.917 453.724C264.156 453.498 264.441 453.385 264.773 453.385C265.106 453.385 265.389 453.498 265.624 453.724C265.862 453.945 265.982 454.214 265.982 454.529C265.982 454.84 265.862 455.109 265.624 455.335C265.389 455.556 265.106 455.667 264.773 455.667ZM270.202 461.17V467H268.291V457.182H270.125V458.78H270.247C270.472 458.26 270.826 457.842 271.308 457.527C271.794 457.212 272.405 457.054 273.142 457.054C273.811 457.054 274.397 457.195 274.9 457.476C275.403 457.753 275.793 458.166 276.07 458.716C276.347 459.266 276.485 459.945 276.485 460.755V467H274.574V460.985C274.574 460.273 274.389 459.717 274.018 459.317C273.647 458.912 273.138 458.71 272.49 458.71C272.047 458.71 271.653 458.805 271.308 458.997C270.967 459.189 270.696 459.47 270.496 459.841C270.3 460.207 270.202 460.651 270.202 461.17ZM283.165 470.886C282.385 470.886 281.714 470.784 281.151 470.58C280.593 470.375 280.137 470.104 279.784 469.768C279.43 469.431 279.166 469.063 278.991 468.662L280.634 467.984C280.749 468.172 280.902 468.37 281.094 468.579C281.29 468.792 281.554 468.973 281.887 469.122C282.223 469.271 282.656 469.346 283.184 469.346C283.909 469.346 284.507 469.169 284.98 468.815C285.453 468.466 285.69 467.908 285.69 467.141V465.21H285.568C285.453 465.419 285.287 465.651 285.07 465.907C284.857 466.163 284.563 466.384 284.188 466.572C283.813 466.759 283.325 466.853 282.724 466.853C281.948 466.853 281.249 466.672 280.627 466.31C280.009 465.943 279.519 465.404 279.157 464.692C278.799 463.977 278.62 463.097 278.62 462.053C278.62 461.009 278.797 460.114 279.151 459.368C279.509 458.622 279.999 458.051 280.621 457.655C281.243 457.254 281.948 457.054 282.737 457.054C283.346 457.054 283.838 457.156 284.213 457.361C284.588 457.561 284.88 457.795 285.089 458.064C285.302 458.332 285.466 458.569 285.581 458.773H285.722V457.182H287.595V467.217C287.595 468.061 287.399 468.754 287.007 469.295C286.615 469.836 286.084 470.237 285.415 470.496C284.75 470.756 284 470.886 283.165 470.886ZM283.146 465.268C283.695 465.268 284.16 465.14 284.539 464.884C284.923 464.624 285.213 464.254 285.409 463.772C285.609 463.286 285.709 462.705 285.709 462.027C285.709 461.366 285.611 460.785 285.415 460.282C285.219 459.779 284.931 459.387 284.552 459.106C284.173 458.82 283.704 458.678 283.146 458.678C282.57 458.678 282.091 458.827 281.708 459.125C281.324 459.419 281.034 459.82 280.838 460.327C280.646 460.834 280.551 461.401 280.551 462.027C280.551 462.67 280.649 463.235 280.845 463.721C281.041 464.207 281.33 464.586 281.714 464.859C282.102 465.131 282.579 465.268 283.146 465.268ZM297.515 459.579L295.783 459.886C295.71 459.664 295.595 459.453 295.438 459.253C295.284 459.053 295.075 458.888 294.811 458.761C294.547 458.633 294.217 458.569 293.82 458.569C293.279 458.569 292.828 458.69 292.465 458.933C292.103 459.172 291.922 459.481 291.922 459.86C291.922 460.188 292.044 460.452 292.286 460.653C292.529 460.853 292.921 461.017 293.463 461.145L295.022 461.503C295.926 461.712 296.599 462.033 297.042 462.468C297.485 462.903 297.707 463.467 297.707 464.162C297.707 464.75 297.536 465.274 297.195 465.734C296.859 466.19 296.388 466.548 295.783 466.808C295.182 467.068 294.485 467.198 293.693 467.198C292.593 467.198 291.696 466.964 291.002 466.495C290.307 466.022 289.881 465.351 289.723 464.482L291.57 464.2C291.686 464.682 291.922 465.046 292.28 465.293C292.638 465.536 293.105 465.658 293.68 465.658C294.306 465.658 294.807 465.528 295.182 465.268C295.557 465.004 295.744 464.682 295.744 464.303C295.744 463.996 295.629 463.738 295.399 463.529C295.173 463.32 294.826 463.163 294.357 463.056L292.695 462.692C291.779 462.483 291.102 462.151 290.663 461.695C290.228 461.239 290.011 460.661 290.011 459.962C290.011 459.383 290.173 458.876 290.497 458.441C290.82 458.006 291.268 457.668 291.839 457.425C292.41 457.178 293.064 457.054 293.801 457.054C294.862 457.054 295.698 457.284 296.307 457.744C296.916 458.2 297.319 458.812 297.515 459.579ZM132.219 492.217C131.597 492.217 131.035 492.102 130.532 491.872C130.029 491.638 129.63 491.299 129.336 490.856C129.047 490.413 128.902 489.869 128.902 489.226C128.902 488.672 129.008 488.216 129.221 487.858C129.434 487.5 129.722 487.217 130.084 487.008C130.446 486.799 130.851 486.641 131.299 486.535C131.746 486.428 132.202 486.347 132.667 486.292C133.255 486.224 133.732 486.168 134.098 486.126C134.465 486.079 134.731 486.004 134.897 485.902C135.064 485.8 135.147 485.634 135.147 485.403V485.359C135.147 484.8 134.989 484.368 134.674 484.061C134.363 483.754 133.898 483.601 133.28 483.601C132.637 483.601 132.13 483.744 131.759 484.029C131.392 484.31 131.139 484.624 130.998 484.969L129.202 484.56C129.415 483.963 129.726 483.482 130.135 483.115C130.549 482.744 131.024 482.476 131.561 482.31C132.098 482.139 132.662 482.054 133.255 482.054C133.647 482.054 134.062 482.101 134.501 482.195C134.944 482.284 135.358 482.45 135.741 482.693C136.129 482.936 136.446 483.283 136.694 483.735C136.941 484.183 137.064 484.764 137.064 485.48V492H135.198V490.658H135.121C134.998 490.905 134.812 491.148 134.565 491.386C134.318 491.625 134 491.823 133.613 491.981C133.225 492.138 132.76 492.217 132.219 492.217ZM132.635 490.683C133.163 490.683 133.615 490.579 133.99 490.37C134.369 490.161 134.657 489.888 134.853 489.552C135.053 489.211 135.153 488.847 135.153 488.459V487.193C135.085 487.261 134.953 487.325 134.757 487.385C134.565 487.44 134.346 487.489 134.098 487.532C133.851 487.57 133.611 487.607 133.376 487.641C133.142 487.67 132.946 487.696 132.788 487.717C132.417 487.764 132.079 487.843 131.772 487.954C131.469 488.065 131.226 488.224 131.043 488.433C130.864 488.638 130.775 488.911 130.775 489.251C130.775 489.724 130.949 490.082 131.299 490.325C131.648 490.564 132.093 490.683 132.635 490.683ZM143.746 492.198C142.795 492.198 141.977 491.983 141.291 491.553C140.609 491.118 140.085 490.519 139.719 489.756C139.352 488.994 139.169 488.12 139.169 487.136C139.169 486.138 139.356 485.259 139.731 484.496C140.106 483.729 140.635 483.13 141.317 482.7C141.998 482.269 142.802 482.054 143.726 482.054C144.472 482.054 145.137 482.192 145.721 482.469C146.305 482.742 146.775 483.126 147.133 483.62C147.496 484.114 147.711 484.692 147.779 485.352H145.919C145.817 484.892 145.582 484.496 145.216 484.163C144.854 483.831 144.368 483.665 143.758 483.665C143.226 483.665 142.759 483.805 142.359 484.087C141.962 484.364 141.653 484.76 141.432 485.276C141.21 485.787 141.099 486.392 141.099 487.091C141.099 487.807 141.208 488.425 141.425 488.945C141.643 489.464 141.949 489.867 142.346 490.153C142.746 490.438 143.217 490.581 143.758 490.581C144.121 490.581 144.449 490.515 144.743 490.383C145.041 490.246 145.29 490.053 145.491 489.801C145.695 489.55 145.838 489.247 145.919 488.893H147.779C147.711 489.528 147.504 490.095 147.159 490.594C146.814 491.092 146.351 491.484 145.772 491.77C145.197 492.055 144.521 492.198 143.746 492.198ZM153.959 492.198C153.008 492.198 152.19 491.983 151.504 491.553C150.822 491.118 150.298 490.519 149.932 489.756C149.565 488.994 149.382 488.12 149.382 487.136C149.382 486.138 149.569 485.259 149.944 484.496C150.319 483.729 150.848 483.13 151.53 482.7C152.211 482.269 153.015 482.054 153.939 482.054C154.685 482.054 155.35 482.192 155.934 482.469C156.517 482.742 156.988 483.126 157.346 483.62C157.709 484.114 157.924 484.692 157.992 485.352H156.132C156.03 484.892 155.795 484.496 155.429 484.163C155.066 483.831 154.581 483.665 153.971 483.665C153.439 483.665 152.972 483.805 152.571 484.087C152.175 484.364 151.866 484.76 151.645 485.276C151.423 485.787 151.312 486.392 151.312 487.091C151.312 487.807 151.421 488.425 151.638 488.945C151.856 489.464 152.162 489.867 152.559 490.153C152.959 490.438 153.43 490.581 153.971 490.581C154.334 490.581 154.662 490.515 154.956 490.383C155.254 490.246 155.503 490.053 155.704 489.801C155.908 489.55 156.051 489.247 156.132 488.893H157.992C157.924 489.528 157.717 490.095 157.372 490.594C157.027 491.092 156.564 491.484 155.985 491.77C155.41 492.055 154.734 492.198 153.959 492.198ZM164.171 492.198C163.251 492.198 162.448 491.987 161.762 491.565C161.076 491.143 160.543 490.553 160.164 489.795C159.784 489.036 159.595 488.15 159.595 487.136C159.595 486.117 159.784 485.227 160.164 484.464C160.543 483.701 161.076 483.109 161.762 482.687C162.448 482.265 163.251 482.054 164.171 482.054C165.092 482.054 165.895 482.265 166.581 482.687C167.267 483.109 167.8 483.701 168.179 484.464C168.559 485.227 168.748 486.117 168.748 487.136C168.748 488.15 168.559 489.036 168.179 489.795C167.8 490.553 167.267 491.143 166.581 491.565C165.895 491.987 165.092 492.198 164.171 492.198ZM164.178 490.594C164.774 490.594 165.269 490.436 165.661 490.121C166.053 489.805 166.343 489.386 166.53 488.862C166.722 488.337 166.818 487.76 166.818 487.129C166.818 486.503 166.722 485.928 166.53 485.403C166.343 484.875 166.053 484.451 165.661 484.131C165.269 483.812 164.774 483.652 164.178 483.652C163.577 483.652 163.078 483.812 162.682 484.131C162.29 484.451 161.998 484.875 161.806 485.403C161.619 485.928 161.525 486.503 161.525 487.129C161.525 487.76 161.619 488.337 161.806 488.862C161.998 489.386 162.29 489.805 162.682 490.121C163.078 490.436 163.577 490.594 164.178 490.594ZM177.101 487.928V482.182H179.019V492H177.139V490.3H177.037C176.811 490.824 176.449 491.261 175.95 491.61C175.456 491.955 174.84 492.128 174.103 492.128C173.472 492.128 172.914 491.989 172.428 491.712C171.947 491.431 171.568 491.016 171.291 490.466C171.018 489.916 170.881 489.237 170.881 488.427V482.182H172.793V488.197C172.793 488.866 172.978 489.398 173.349 489.795C173.72 490.191 174.201 490.389 174.793 490.389C175.151 490.389 175.507 490.3 175.861 490.121C176.219 489.942 176.515 489.671 176.749 489.309C176.988 488.947 177.105 488.487 177.101 487.928ZM183.498 486.17V492H181.587V482.182H183.421V483.78H183.543C183.768 483.26 184.122 482.842 184.604 482.527C185.089 482.212 185.701 482.054 186.438 482.054C187.107 482.054 187.693 482.195 188.196 482.476C188.699 482.753 189.089 483.166 189.366 483.716C189.643 484.266 189.781 484.945 189.781 485.755V492H187.87V485.985C187.87 485.273 187.685 484.717 187.314 484.317C186.943 483.912 186.434 483.71 185.786 483.71C185.343 483.71 184.949 483.805 184.604 483.997C184.263 484.189 183.992 484.47 183.792 484.841C183.596 485.207 183.498 485.651 183.498 486.17ZM196.927 482.182V483.716H191.565V482.182H196.927ZM193.003 479.83H194.914V489.117C194.914 489.488 194.969 489.767 195.08 489.955C195.191 490.138 195.334 490.263 195.508 490.332C195.687 490.396 195.881 490.428 196.09 490.428C196.244 490.428 196.378 490.417 196.493 490.396C196.608 490.374 196.697 490.357 196.761 490.344L197.106 491.923C196.996 491.966 196.838 492.009 196.633 492.051C196.429 492.098 196.173 492.124 195.866 492.128C195.364 492.136 194.895 492.047 194.46 491.859C194.025 491.672 193.674 491.382 193.405 490.99C193.137 490.598 193.003 490.106 193.003 489.513V479.83ZM205.934 492L203.045 482.182H205.02L206.944 489.392H207.04L208.97 482.182H210.945L212.863 489.36H212.959L214.87 482.182H216.845L213.962 492H212.013L210.018 484.911H209.871L207.877 492H205.934ZM218.659 492V482.182H220.57V492H218.659ZM219.624 480.667C219.292 480.667 219.006 480.556 218.767 480.335C218.533 480.109 218.416 479.84 218.416 479.529C218.416 479.214 218.533 478.945 218.767 478.724C219.006 478.498 219.292 478.385 219.624 478.385C219.956 478.385 220.24 478.498 220.474 478.724C220.713 478.945 220.832 479.214 220.832 479.529C220.832 479.84 220.713 480.109 220.474 480.335C220.24 480.556 219.956 480.667 219.624 480.667ZM227.724 482.182V483.716H222.361V482.182H227.724ZM223.8 479.83H225.711V489.117C225.711 489.488 225.766 489.767 225.877 489.955C225.988 490.138 226.131 490.263 226.305 490.332C226.484 490.396 226.678 490.428 226.887 490.428C227.04 490.428 227.175 490.417 227.29 490.396C227.405 490.374 227.494 490.357 227.558 490.344L227.903 491.923C227.793 491.966 227.635 492.009 227.43 492.051C227.226 492.098 226.97 492.124 226.663 492.128C226.16 492.136 225.692 492.047 225.257 491.859C224.822 491.672 224.471 491.382 224.202 490.99C223.934 490.598 223.8 490.106 223.8 489.513V479.83ZM231.961 486.17V492H230.049V478.909H231.935V483.78H232.057C232.287 483.251 232.638 482.832 233.111 482.521C233.584 482.21 234.202 482.054 234.965 482.054C235.638 482.054 236.226 482.192 236.729 482.469C237.236 482.746 237.628 483.16 237.905 483.71C238.187 484.255 238.327 484.937 238.327 485.755V492H236.416V485.985C236.416 485.265 236.231 484.707 235.86 484.31C235.489 483.91 234.973 483.71 234.313 483.71C233.861 483.71 233.456 483.805 233.098 483.997C232.745 484.189 232.466 484.47 232.261 484.841C232.061 485.207 231.961 485.651 231.961 486.17ZM245.795 492V478.909H247.706V483.773H247.821C247.932 483.569 248.092 483.332 248.3 483.064C248.509 482.795 248.799 482.561 249.17 482.361C249.54 482.156 250.03 482.054 250.64 482.054C251.432 482.054 252.14 482.254 252.762 482.655C253.384 483.055 253.872 483.633 254.226 484.387C254.584 485.141 254.763 486.049 254.763 487.11C254.763 488.171 254.586 489.081 254.232 489.839C253.878 490.594 253.393 491.175 252.775 491.585C252.157 491.989 251.452 492.192 250.659 492.192C250.062 492.192 249.574 492.092 249.195 491.891C248.82 491.691 248.526 491.457 248.313 491.188C248.1 490.92 247.936 490.681 247.821 490.472H247.661V492H245.795ZM247.668 487.091C247.668 487.781 247.768 488.386 247.968 488.906C248.168 489.426 248.458 489.833 248.837 490.127C249.217 490.417 249.681 490.562 250.231 490.562C250.802 490.562 251.279 490.411 251.663 490.108C252.046 489.801 252.336 489.386 252.532 488.862C252.732 488.337 252.832 487.747 252.832 487.091C252.832 486.443 252.734 485.862 252.538 485.346C252.347 484.83 252.057 484.423 251.669 484.125C251.285 483.827 250.806 483.678 250.231 483.678C249.677 483.678 249.208 483.82 248.824 484.106C248.445 484.391 248.158 484.79 247.962 485.301C247.766 485.812 247.668 486.409 247.668 487.091ZM256.909 492V482.182H258.82V492H256.909ZM257.874 480.667C257.542 480.667 257.256 480.556 257.017 480.335C256.783 480.109 256.666 479.84 256.666 479.529C256.666 479.214 256.783 478.945 257.017 478.724C257.256 478.498 257.542 478.385 257.874 478.385C258.206 478.385 258.49 478.498 258.724 478.724C258.963 478.945 259.082 479.214 259.082 479.529C259.082 479.84 258.963 480.109 258.724 480.335C258.49 480.556 258.206 480.667 257.874 480.667ZM265.508 495.886C264.728 495.886 264.057 495.784 263.494 495.58C262.936 495.375 262.48 495.104 262.126 494.768C261.773 494.431 261.508 494.063 261.334 493.662L262.976 492.984C263.092 493.172 263.245 493.37 263.437 493.579C263.633 493.792 263.897 493.973 264.229 494.122C264.566 494.271 264.998 494.346 265.527 494.346C266.251 494.346 266.85 494.169 267.323 493.815C267.796 493.466 268.033 492.908 268.033 492.141V490.21H267.911C267.796 490.419 267.63 490.651 267.413 490.907C267.199 491.163 266.905 491.384 266.53 491.572C266.155 491.759 265.668 491.853 265.067 491.853C264.291 491.853 263.592 491.672 262.97 491.31C262.352 490.943 261.862 490.404 261.5 489.692C261.142 488.977 260.963 488.097 260.963 487.053C260.963 486.009 261.14 485.114 261.494 484.368C261.851 483.622 262.342 483.051 262.964 482.655C263.586 482.254 264.291 482.054 265.079 482.054C265.689 482.054 266.181 482.156 266.556 482.361C266.931 482.561 267.223 482.795 267.432 483.064C267.645 483.332 267.809 483.569 267.924 483.773H268.065V482.182H269.937V492.217C269.937 493.061 269.741 493.754 269.349 494.295C268.957 494.836 268.427 495.237 267.758 495.496C267.093 495.756 266.343 495.886 265.508 495.886ZM265.489 490.268C266.038 490.268 266.503 490.14 266.882 489.884C267.266 489.624 267.555 489.254 267.751 488.772C267.952 488.286 268.052 487.705 268.052 487.027C268.052 486.366 267.954 485.785 267.758 485.282C267.562 484.779 267.274 484.387 266.895 484.106C266.516 483.82 266.047 483.678 265.489 483.678C264.913 483.678 264.434 483.827 264.05 484.125C263.667 484.419 263.377 484.82 263.181 485.327C262.989 485.834 262.893 486.401 262.893 487.027C262.893 487.67 262.991 488.235 263.187 488.721C263.383 489.207 263.673 489.586 264.057 489.859C264.445 490.131 264.922 490.268 265.489 490.268ZM277.418 492V478.909H279.329V483.773H279.444C279.555 483.569 279.715 483.332 279.923 483.064C280.132 482.795 280.422 482.561 280.793 482.361C281.163 482.156 281.653 482.054 282.263 482.054C283.055 482.054 283.763 482.254 284.385 482.655C285.007 483.055 285.495 483.633 285.849 484.387C286.207 485.141 286.386 486.049 286.386 487.11C286.386 488.171 286.209 489.081 285.855 489.839C285.502 490.594 285.016 491.175 284.398 491.585C283.78 491.989 283.075 492.192 282.282 492.192C281.685 492.192 281.198 492.092 280.818 491.891C280.443 491.691 280.149 491.457 279.936 491.188C279.723 490.92 279.559 490.681 279.444 490.472H279.284V492H277.418ZM279.291 487.091C279.291 487.781 279.391 488.386 279.591 488.906C279.791 489.426 280.081 489.833 280.46 490.127C280.84 490.417 281.304 490.562 281.854 490.562C282.425 490.562 282.902 490.411 283.286 490.108C283.669 489.801 283.959 489.386 284.155 488.862C284.355 488.337 284.455 487.747 284.455 487.091C284.455 486.443 284.357 485.862 284.161 485.346C283.97 484.83 283.68 484.423 283.292 484.125C282.908 483.827 282.429 483.678 281.854 483.678C281.3 483.678 280.831 483.82 280.448 484.106C280.068 484.391 279.781 484.79 279.585 485.301C279.389 485.812 279.291 486.409 279.291 487.091ZM291.389 492.217C290.767 492.217 290.204 492.102 289.702 491.872C289.199 491.638 288.8 491.299 288.506 490.856C288.217 490.413 288.072 489.869 288.072 489.226C288.072 488.672 288.178 488.216 288.391 487.858C288.604 487.5 288.892 487.217 289.254 487.008C289.616 486.799 290.021 486.641 290.469 486.535C290.916 486.428 291.372 486.347 291.837 486.292C292.425 486.224 292.902 486.168 293.268 486.126C293.635 486.079 293.901 486.004 294.067 485.902C294.234 485.8 294.317 485.634 294.317 485.403V485.359C294.317 484.8 294.159 484.368 293.844 484.061C293.533 483.754 293.068 483.601 292.45 483.601C291.807 483.601 291.3 483.744 290.929 484.029C290.562 484.31 290.309 484.624 290.168 484.969L288.372 484.56C288.585 483.963 288.896 483.482 289.305 483.115C289.719 482.744 290.194 482.476 290.731 482.31C291.268 482.139 291.832 482.054 292.425 482.054C292.817 482.054 293.232 482.101 293.671 482.195C294.114 482.284 294.528 482.45 294.911 482.693C295.299 482.936 295.616 483.283 295.864 483.735C296.111 484.183 296.234 484.764 296.234 485.48V492H294.368V490.658H294.291C294.168 490.905 293.982 491.148 293.735 491.386C293.488 491.625 293.17 491.823 292.783 491.981C292.395 492.138 291.93 492.217 291.389 492.217ZM291.805 490.683C292.333 490.683 292.785 490.579 293.16 490.37C293.539 490.161 293.827 489.888 294.023 489.552C294.223 489.211 294.323 488.847 294.323 488.459V487.193C294.255 487.261 294.123 487.325 293.927 487.385C293.735 487.44 293.516 487.489 293.268 487.532C293.021 487.57 292.78 487.607 292.546 487.641C292.312 487.67 292.116 487.696 291.958 487.717C291.587 487.764 291.248 487.843 290.942 487.954C290.639 488.065 290.396 488.224 290.213 488.433C290.034 488.638 289.945 488.911 289.945 489.251C289.945 489.724 290.119 490.082 290.469 490.325C290.818 490.564 291.263 490.683 291.805 490.683ZM300.691 486.17V492H298.78V482.182H300.614V483.78H300.736C300.962 483.26 301.315 482.842 301.797 482.527C302.283 482.212 302.894 482.054 303.631 482.054C304.301 482.054 304.886 482.195 305.389 482.476C305.892 482.753 306.282 483.166 306.559 483.716C306.836 484.266 306.975 484.945 306.975 485.755V492H305.063V485.985C305.063 485.273 304.878 484.717 304.507 484.317C304.136 483.912 303.627 483.71 302.979 483.71C302.536 483.71 302.142 483.805 301.797 483.997C301.456 484.189 301.185 484.47 300.985 484.841C300.789 485.207 300.691 485.651 300.691 486.17ZM311.296 488.67L311.283 486.337H311.615L315.527 482.182H317.815L313.354 486.912H313.053L311.296 488.67ZM309.538 492V478.909H311.449V492H309.538ZM315.738 492L312.222 487.334L313.539 485.998L318.084 492H315.738ZM326.915 484.579L325.182 484.886C325.11 484.664 324.995 484.453 324.837 484.253C324.684 484.053 324.475 483.888 324.211 483.761C323.946 483.633 323.616 483.569 323.22 483.569C322.679 483.569 322.227 483.69 321.865 483.933C321.503 484.172 321.321 484.481 321.321 484.86C321.321 485.188 321.443 485.452 321.686 485.653C321.929 485.853 322.321 486.017 322.862 486.145L324.422 486.503C325.325 486.712 325.998 487.033 326.441 487.468C326.885 487.903 327.106 488.467 327.106 489.162C327.106 489.75 326.936 490.274 326.595 490.734C326.258 491.19 325.787 491.548 325.182 491.808C324.581 492.068 323.885 492.198 323.092 492.198C321.993 492.198 321.096 491.964 320.401 491.495C319.706 491.022 319.28 490.351 319.123 489.482L320.97 489.2C321.085 489.682 321.321 490.046 321.679 490.293C322.037 490.536 322.504 490.658 323.079 490.658C323.706 490.658 324.206 490.528 324.581 490.268C324.956 490.004 325.144 489.682 325.144 489.303C325.144 488.996 325.029 488.738 324.799 488.529C324.573 488.32 324.226 488.163 323.757 488.056L322.095 487.692C321.179 487.483 320.501 487.151 320.062 486.695C319.628 486.239 319.41 485.661 319.41 484.962C319.41 484.383 319.572 483.876 319.896 483.441C320.22 483.006 320.667 482.668 321.238 482.425C321.809 482.178 322.464 482.054 323.201 482.054C324.262 482.054 325.097 482.284 325.706 482.744C326.316 483.2 326.718 483.812 326.915 484.579Z" fill="black"/>
<defs>
<linearGradient id="paint0_linear_8351_6163" x1="500.5" y1="192" x2="500.5" y2="632" gradientUnits="userSpaceOnUse">
<stop stop-color="#767CFF"/>
<stop offset="0.23" stop-color="#9B9AFF"/>
<stop offset="0.495" stop-color="#AFB0FF"/>
<stop offset="0.75" stop-color="#C4C5FF"/>
<stop offset="0.94" stop-color="#C6C7FF"/>
</linearGradient>
</defs>
</svg>
