<svg width="703" height="703" viewBox="0 0 703 703" fill="none" xmlns="http://www.w3.org/2000/svg">
<rect width="703" height="703" rx="50" fill="#EFEFEF"/>
<path d="M148 486C148 478.268 154.268 472 162 472H293C300.732 472 307 478.268 307 486V572C307 577.523 302.523 582 297 582H158C152.477 582 148 577.523 148 572V486Z" fill="#B1AFAA"/>
<path d="M421 156C421 148.268 427.268 142 435 142H566C573.732 142 580 148.268 580 156V572C580 577.523 575.523 582 570 582H431C425.477 582 421 577.523 421 572V156Z" fill="url(#paint0_linear_8351_6163)"/>
<path d="M458.408 223.069V216.136L478.831 183.868H484.613V193.739H481.087L467.339 215.525V215.901H495.847V223.069H458.408ZM481.369 232V220.954L481.463 217.852V183.868H489.689V232H481.369ZM510.406 195.901L517.692 209.226L525.095 195.901H534.096L523.215 213.95L534.284 232H525.33L517.692 219.003L510.124 232H501.099L512.098 213.95L501.381 195.901H510.406Z" fill="white"/>
<path d="M426.438 632V618.909H428.413V624.598H434.94V618.909H436.921V632H434.94V626.292H428.413V632H426.438ZM442.501 632.217C441.879 632.217 441.317 632.102 440.814 631.872C440.311 631.638 439.913 631.299 439.619 630.856C439.329 630.413 439.184 629.869 439.184 629.226C439.184 628.672 439.29 628.216 439.504 627.858C439.717 627.5 440.004 627.217 440.366 627.008C440.729 626.799 441.134 626.641 441.581 626.535C442.028 626.428 442.484 626.347 442.949 626.292C443.537 626.224 444.014 626.168 444.381 626.126C444.747 626.079 445.013 626.004 445.18 625.902C445.346 625.8 445.429 625.634 445.429 625.403V625.359C445.429 624.8 445.271 624.368 444.956 624.061C444.645 623.754 444.18 623.601 443.562 623.601C442.919 623.601 442.412 623.744 442.041 624.029C441.675 624.31 441.421 624.624 441.281 624.969L439.484 624.56C439.697 623.963 440.009 623.482 440.418 623.115C440.831 622.744 441.306 622.476 441.843 622.31C442.38 622.139 442.945 622.054 443.537 622.054C443.929 622.054 444.344 622.101 444.783 622.195C445.227 622.284 445.64 622.45 446.023 622.693C446.411 622.936 446.729 623.283 446.976 623.735C447.223 624.183 447.347 624.764 447.347 625.48V632H445.48V630.658H445.403C445.28 630.905 445.094 631.148 444.847 631.386C444.6 631.625 444.283 631.823 443.895 631.981C443.507 632.138 443.043 632.217 442.501 632.217ZM442.917 630.683C443.445 630.683 443.897 630.579 444.272 630.37C444.651 630.161 444.939 629.888 445.135 629.552C445.335 629.211 445.435 628.847 445.435 628.459V627.193C445.367 627.261 445.235 627.325 445.039 627.385C444.847 627.44 444.628 627.489 444.381 627.532C444.134 627.57 443.893 627.607 443.658 627.641C443.424 627.67 443.228 627.696 443.07 627.717C442.7 627.764 442.361 627.843 442.054 627.954C441.751 628.065 441.509 628.224 441.325 628.433C441.146 628.638 441.057 628.911 441.057 629.251C441.057 629.724 441.232 630.082 441.581 630.325C441.93 630.564 442.376 630.683 442.917 630.683ZM454.475 622.182V623.716H449.112V622.182H454.475ZM450.551 619.83H452.462V629.117C452.462 629.488 452.517 629.767 452.628 629.955C452.739 630.138 452.882 630.263 453.056 630.332C453.235 630.396 453.429 630.428 453.638 630.428C453.791 630.428 453.926 630.417 454.041 630.396C454.156 630.374 454.245 630.357 454.309 630.344L454.654 631.923C454.544 631.966 454.386 632.009 454.181 632.051C453.977 632.098 453.721 632.124 453.414 632.128C452.911 632.136 452.443 632.047 452.008 631.859C451.573 631.672 451.222 631.382 450.953 630.99C450.685 630.598 450.551 630.106 450.551 629.513V619.83ZM460.62 632.198C459.669 632.198 458.851 631.983 458.165 631.553C457.483 631.118 456.959 630.519 456.593 629.756C456.226 628.994 456.043 628.12 456.043 627.136C456.043 626.138 456.23 625.259 456.605 624.496C456.98 623.729 457.509 623.13 458.191 622.7C458.873 622.269 459.676 622.054 460.6 622.054C461.346 622.054 462.011 622.192 462.595 622.469C463.179 622.742 463.65 623.126 464.007 623.62C464.37 624.114 464.585 624.692 464.653 625.352H462.793C462.691 624.892 462.456 624.496 462.09 624.163C461.728 623.831 461.242 623.665 460.632 623.665C460.1 623.665 459.633 623.805 459.233 624.087C458.836 624.364 458.527 624.76 458.306 625.276C458.084 625.787 457.973 626.392 457.973 627.091C457.973 627.807 458.082 628.425 458.299 628.945C458.517 629.464 458.824 629.867 459.22 630.153C459.62 630.438 460.091 630.581 460.632 630.581C460.995 630.581 461.323 630.515 461.617 630.383C461.915 630.246 462.164 630.053 462.365 629.801C462.569 629.55 462.712 629.247 462.793 628.893H464.653C464.585 629.528 464.378 630.095 464.033 630.594C463.688 631.092 463.225 631.484 462.646 631.77C462.071 632.055 461.395 632.198 460.62 632.198ZM468.608 626.17V632H466.697V618.909H468.583V623.78H468.704C468.934 623.251 469.286 622.832 469.759 622.521C470.232 622.21 470.85 622.054 471.612 622.054C472.286 622.054 472.874 622.192 473.377 622.469C473.884 622.746 474.276 623.16 474.553 623.71C474.834 624.255 474.975 624.937 474.975 625.755V632H473.063V625.985C473.063 625.265 472.878 624.707 472.507 624.31C472.137 623.91 471.621 623.71 470.96 623.71C470.509 623.71 470.104 623.805 469.746 623.997C469.392 624.189 469.113 624.47 468.909 624.841C468.708 625.207 468.608 625.651 468.608 626.17ZM477.525 632V622.182H479.436V632H477.525ZM478.49 620.667C478.158 620.667 477.872 620.556 477.634 620.335C477.399 620.109 477.282 619.84 477.282 619.529C477.282 619.214 477.399 618.945 477.634 618.724C477.872 618.498 478.158 618.385 478.49 618.385C478.823 618.385 479.106 618.498 479.34 618.724C479.579 618.945 479.698 619.214 479.698 619.529C479.698 619.84 479.579 620.109 479.34 620.335C479.106 620.556 478.823 620.667 478.49 620.667ZM483.919 626.17V632H482.007V622.182H483.842V623.78H483.963C484.189 623.26 484.543 622.842 485.025 622.527C485.51 622.212 486.122 622.054 486.859 622.054C487.528 622.054 488.114 622.195 488.617 622.476C489.12 622.753 489.51 623.166 489.787 623.716C490.064 624.266 490.202 624.945 490.202 625.755V632H488.291V625.985C488.291 625.273 488.105 624.717 487.735 624.317C487.364 623.912 486.855 623.71 486.207 623.71C485.764 623.71 485.37 623.805 485.025 623.997C484.684 624.189 484.413 624.47 484.213 624.841C484.017 625.207 483.919 625.651 483.919 626.17ZM496.882 635.886C496.102 635.886 495.431 635.784 494.868 635.58C494.31 635.375 493.854 635.104 493.5 634.768C493.147 634.431 492.882 634.063 492.708 633.662L494.35 632.984C494.466 633.172 494.619 633.37 494.811 633.579C495.007 633.792 495.271 633.973 495.603 634.122C495.94 634.271 496.373 634.346 496.901 634.346C497.625 634.346 498.224 634.169 498.697 633.815C499.17 633.466 499.407 632.908 499.407 632.141V630.21H499.285C499.17 630.419 499.004 630.651 498.787 630.907C498.574 631.163 498.279 631.384 497.904 631.572C497.529 631.759 497.042 631.853 496.441 631.853C495.665 631.853 494.966 631.672 494.344 631.31C493.726 630.943 493.236 630.404 492.874 629.692C492.516 628.977 492.337 628.097 492.337 627.053C492.337 626.009 492.514 625.114 492.868 624.368C493.225 623.622 493.716 623.051 494.338 622.655C494.96 622.254 495.665 622.054 496.453 622.054C497.063 622.054 497.555 622.156 497.93 622.361C498.305 622.561 498.597 622.795 498.806 623.064C499.019 623.332 499.183 623.569 499.298 623.773H499.439V622.182H501.311V632.217C501.311 633.061 501.115 633.754 500.723 634.295C500.331 634.836 499.801 635.237 499.132 635.496C498.467 635.756 497.717 635.886 496.882 635.886ZM496.863 630.268C497.412 630.268 497.877 630.14 498.256 629.884C498.64 629.624 498.929 629.254 499.125 628.772C499.326 628.286 499.426 627.705 499.426 627.027C499.426 626.366 499.328 625.785 499.132 625.282C498.936 624.779 498.648 624.387 498.269 624.106C497.89 623.82 497.421 623.678 496.863 623.678C496.287 623.678 495.808 623.827 495.424 624.125C495.041 624.419 494.751 624.82 494.555 625.327C494.363 625.834 494.267 626.401 494.267 627.027C494.267 627.67 494.365 628.235 494.561 628.721C494.757 629.207 495.047 629.586 495.431 629.859C495.819 630.131 496.296 630.268 496.863 630.268ZM515.932 622.348C515.863 621.743 515.582 621.274 515.088 620.942C514.594 620.605 513.971 620.437 513.221 620.437C512.684 620.437 512.22 620.522 511.828 620.692C511.436 620.859 511.131 621.089 510.914 621.383C510.701 621.673 510.594 622.003 510.594 622.374C510.594 622.685 510.667 622.953 510.812 623.179C510.961 623.405 511.155 623.594 511.393 623.748C511.636 623.897 511.896 624.023 512.173 624.125C512.45 624.223 512.716 624.304 512.972 624.368L514.251 624.7C514.668 624.803 515.096 624.941 515.535 625.116C515.974 625.29 516.381 625.521 516.756 625.806C517.131 626.092 517.434 626.445 517.664 626.867C517.898 627.289 518.015 627.794 518.015 628.382C518.015 629.124 517.824 629.782 517.44 630.357C517.061 630.933 516.509 631.386 515.785 631.719C515.064 632.051 514.193 632.217 513.17 632.217C512.19 632.217 511.342 632.062 510.626 631.751C509.91 631.44 509.35 630.999 508.945 630.428C508.54 629.852 508.317 629.17 508.274 628.382H510.256C510.294 628.855 510.447 629.249 510.716 629.565C510.988 629.876 511.336 630.108 511.758 630.261C512.184 630.411 512.65 630.485 513.157 630.485C513.716 630.485 514.212 630.398 514.647 630.223C515.086 630.044 515.431 629.797 515.682 629.482C515.934 629.162 516.059 628.789 516.059 628.363C516.059 627.975 515.949 627.658 515.727 627.411C515.51 627.163 515.214 626.959 514.839 626.797C514.468 626.635 514.048 626.492 513.579 626.369L512.032 625.947C510.984 625.661 510.153 625.241 509.54 624.688C508.93 624.134 508.626 623.401 508.626 622.489C508.626 621.734 508.83 621.076 509.239 620.513C509.648 619.951 510.202 619.514 510.901 619.203C511.6 618.888 512.388 618.73 513.266 618.73C514.153 618.73 514.934 618.886 515.612 619.197C516.294 619.508 516.831 619.936 517.223 620.482C517.615 621.023 517.819 621.645 517.836 622.348H515.932ZM523.08 632.217C522.457 632.217 521.895 632.102 521.392 631.872C520.889 631.638 520.491 631.299 520.197 630.856C519.907 630.413 519.762 629.869 519.762 629.226C519.762 628.672 519.869 628.216 520.082 627.858C520.295 627.5 520.582 627.217 520.945 627.008C521.307 626.799 521.712 626.641 522.159 626.535C522.607 626.428 523.063 626.347 523.527 626.292C524.115 626.224 524.592 626.168 524.959 626.126C525.325 626.079 525.592 626.004 525.758 625.902C525.924 625.8 526.007 625.634 526.007 625.403V625.359C526.007 624.8 525.849 624.368 525.534 624.061C525.223 623.754 524.759 623.601 524.141 623.601C523.497 623.601 522.99 623.744 522.619 624.029C522.253 624.31 521.999 624.624 521.859 624.969L520.062 624.56C520.276 623.963 520.587 623.482 520.996 623.115C521.409 622.744 521.884 622.476 522.421 622.31C522.958 622.139 523.523 622.054 524.115 622.054C524.507 622.054 524.923 622.101 525.362 622.195C525.805 622.284 526.218 622.45 526.602 622.693C526.989 622.936 527.307 623.283 527.554 623.735C527.801 624.183 527.925 624.764 527.925 625.48V632H526.058V630.658H525.982C525.858 630.905 525.673 631.148 525.425 631.386C525.178 631.625 524.861 631.823 524.473 631.981C524.085 632.138 523.621 632.217 523.08 632.217ZM523.495 630.683C524.023 630.683 524.475 630.579 524.85 630.37C525.229 630.161 525.517 629.888 525.713 629.552C525.913 629.211 526.013 628.847 526.013 628.459V627.193C525.945 627.261 525.813 627.325 525.617 627.385C525.425 627.44 525.206 627.489 524.959 627.532C524.712 627.57 524.471 627.607 524.237 627.641C524.002 627.67 523.806 627.696 523.648 627.717C523.278 627.764 522.939 627.843 522.632 627.954C522.33 628.065 522.087 628.224 521.903 628.433C521.724 628.638 521.635 628.911 521.635 629.251C521.635 629.724 521.81 630.082 522.159 630.325C522.509 630.564 522.954 630.683 523.495 630.683ZM538.518 622.182L534.958 632H532.912L529.345 622.182H531.397L533.884 629.737H533.986L536.466 622.182H538.518ZM540.314 632V622.182H542.225V632H540.314ZM541.279 620.667C540.947 620.667 540.661 620.556 540.423 620.335C540.188 620.109 540.071 619.84 540.071 619.529C540.071 619.214 540.188 618.945 540.423 618.724C540.661 618.498 540.947 618.385 541.279 618.385C541.612 618.385 541.895 618.498 542.129 618.724C542.368 618.945 542.487 619.214 542.487 619.529C542.487 619.84 542.368 620.109 542.129 620.335C541.895 620.556 541.612 620.667 541.279 620.667ZM546.708 626.17V632H544.797V622.182H546.631V623.78H546.752C546.978 623.26 547.332 622.842 547.814 622.527C548.299 622.212 548.911 622.054 549.648 622.054C550.317 622.054 550.903 622.195 551.406 622.476C551.909 622.753 552.299 623.166 552.576 623.716C552.853 624.266 552.991 624.945 552.991 625.755V632H551.08V625.985C551.08 625.273 550.895 624.717 550.524 624.317C550.153 623.912 549.644 623.71 548.996 623.71C548.553 623.71 548.159 623.805 547.814 623.997C547.473 624.189 547.202 624.47 547.002 624.841C546.806 625.207 546.708 625.651 546.708 626.17ZM559.671 635.886C558.891 635.886 558.22 635.784 557.657 635.58C557.099 635.375 556.643 635.104 556.289 634.768C555.936 634.431 555.672 634.063 555.497 633.662L557.14 632.984C557.255 633.172 557.408 633.37 557.6 633.579C557.796 633.792 558.06 633.973 558.392 634.122C558.729 634.271 559.162 634.346 559.69 634.346C560.414 634.346 561.013 634.169 561.486 633.815C561.959 633.466 562.196 632.908 562.196 632.141V630.21H562.074C561.959 630.419 561.793 630.651 561.576 630.907C561.363 631.163 561.069 631.384 560.694 631.572C560.319 631.759 559.831 631.853 559.23 631.853C558.454 631.853 557.755 631.672 557.133 631.31C556.515 630.943 556.025 630.404 555.663 629.692C555.305 628.977 555.126 628.097 555.126 627.053C555.126 626.009 555.303 625.114 555.657 624.368C556.015 623.622 556.505 623.051 557.127 622.655C557.749 622.254 558.454 622.054 559.243 622.054C559.852 622.054 560.344 622.156 560.719 622.361C561.094 622.561 561.386 622.795 561.595 623.064C561.808 623.332 561.972 623.569 562.087 623.773H562.228V622.182H564.1V632.217C564.1 633.061 563.904 633.754 563.512 634.295C563.12 634.836 562.59 635.237 561.921 635.496C561.256 635.756 560.506 635.886 559.671 635.886ZM559.652 630.268C560.201 630.268 560.666 630.14 561.045 629.884C561.429 629.624 561.718 629.254 561.914 628.772C562.115 628.286 562.215 627.705 562.215 627.027C562.215 626.366 562.117 625.785 561.921 625.282C561.725 624.779 561.437 624.387 561.058 624.106C560.679 623.82 560.21 623.678 559.652 623.678C559.076 623.678 558.597 623.827 558.213 624.125C557.83 624.419 557.54 624.82 557.344 625.327C557.152 625.834 557.056 626.401 557.056 627.027C557.056 627.67 557.154 628.235 557.35 628.721C557.547 629.207 557.836 629.586 558.22 629.859C558.608 630.131 559.085 630.268 559.652 630.268ZM574.021 624.579L572.289 624.886C572.216 624.664 572.101 624.453 571.944 624.253C571.79 624.053 571.581 623.888 571.317 623.761C571.053 623.633 570.723 623.569 570.326 623.569C569.785 623.569 569.333 623.69 568.971 623.933C568.609 624.172 568.428 624.481 568.428 624.86C568.428 625.188 568.549 625.452 568.792 625.653C569.035 625.853 569.427 626.017 569.968 626.145L571.528 626.503C572.431 626.712 573.105 627.033 573.548 627.468C573.991 627.903 574.213 628.467 574.213 629.162C574.213 629.75 574.042 630.274 573.701 630.734C573.365 631.19 572.894 631.548 572.289 631.808C571.688 632.068 570.991 632.198 570.199 632.198C569.099 632.198 568.202 631.964 567.507 631.495C566.813 631.022 566.387 630.351 566.229 629.482L568.076 629.2C568.191 629.682 568.428 630.046 568.786 630.293C569.144 630.536 569.61 630.658 570.186 630.658C570.812 630.658 571.313 630.528 571.688 630.268C572.063 630.004 572.25 629.682 572.25 629.303C572.25 628.996 572.135 628.738 571.905 628.529C571.679 628.32 571.332 628.163 570.863 628.056L569.201 627.692C568.285 627.483 567.608 627.151 567.169 626.695C566.734 626.239 566.517 625.661 566.517 624.962C566.517 624.383 566.679 623.876 567.002 623.441C567.326 623.006 567.774 622.668 568.345 622.425C568.916 622.178 569.57 622.054 570.307 622.054C571.368 622.054 572.203 622.284 572.813 622.744C573.422 623.2 573.825 623.812 574.021 624.579Z" fill="black"/>
<path d="M160.021 617H157.924L162.635 603.909H164.917L169.628 617H167.531L163.83 606.287H163.728L160.021 617ZM160.372 611.874H167.173V613.536H160.372V611.874ZM178.534 607.182L174.973 617H172.928L169.361 607.182H171.413L173.899 614.737H174.002L176.482 607.182H178.534ZM184.227 617.198C183.26 617.198 182.427 616.991 181.728 616.578C181.033 616.161 180.496 615.575 180.117 614.82C179.742 614.062 179.555 613.173 179.555 612.155C179.555 611.149 179.742 610.263 180.117 609.496C180.496 608.729 181.025 608.13 181.702 607.7C182.384 607.269 183.181 607.054 184.093 607.054C184.647 607.054 185.184 607.146 185.704 607.329C186.224 607.512 186.69 607.8 187.104 608.192C187.517 608.584 187.843 609.093 188.082 609.719C188.32 610.342 188.44 611.098 188.44 611.989V612.666H180.635V611.234H186.567C186.567 610.732 186.464 610.286 186.26 609.898C186.055 609.506 185.768 609.197 185.397 608.972C185.031 608.746 184.6 608.633 184.106 608.633C183.569 608.633 183.1 608.765 182.7 609.029C182.303 609.289 181.996 609.63 181.779 610.052C181.566 610.469 181.46 610.923 181.46 611.413V612.532C181.46 613.188 181.575 613.746 181.805 614.207C182.039 614.667 182.365 615.018 182.783 615.261C183.2 615.5 183.688 615.619 184.246 615.619C184.609 615.619 184.939 615.568 185.237 615.466C185.536 615.359 185.793 615.202 186.011 614.993C186.228 614.784 186.394 614.526 186.509 614.219L188.318 614.545C188.173 615.078 187.913 615.545 187.538 615.945C187.168 616.342 186.701 616.651 186.138 616.872C185.58 617.089 184.943 617.198 184.227 617.198ZM190.56 617V607.182H192.407V608.741H192.51C192.689 608.213 193.004 607.798 193.456 607.495C193.912 607.188 194.427 607.035 195.003 607.035C195.122 607.035 195.263 607.039 195.425 607.048C195.591 607.056 195.721 607.067 195.814 607.08V608.908C195.738 608.886 195.601 608.863 195.405 608.837C195.209 608.808 195.013 608.793 194.817 608.793C194.366 608.793 193.963 608.888 193.609 609.08C193.26 609.268 192.983 609.53 192.778 609.866C192.574 610.199 192.471 610.578 192.471 611.004V617H190.56ZM200.238 617.217C199.616 617.217 199.053 617.102 198.55 616.872C198.047 616.638 197.649 616.299 197.355 615.856C197.065 615.413 196.92 614.869 196.92 614.226C196.92 613.672 197.027 613.216 197.24 612.858C197.453 612.5 197.741 612.217 198.103 612.008C198.465 611.799 198.87 611.641 199.317 611.535C199.765 611.428 200.221 611.347 200.685 611.292C201.273 611.224 201.751 611.168 202.117 611.126C202.483 611.079 202.75 611.004 202.916 610.902C203.082 610.8 203.165 610.634 203.165 610.403V610.359C203.165 609.8 203.008 609.368 202.692 609.061C202.381 608.754 201.917 608.601 201.299 608.601C200.655 608.601 200.148 608.744 199.778 609.029C199.411 609.31 199.157 609.624 199.017 609.969L197.221 609.56C197.434 608.963 197.745 608.482 198.154 608.115C198.567 607.744 199.042 607.476 199.579 607.31C200.116 607.139 200.681 607.054 201.273 607.054C201.665 607.054 202.081 607.101 202.52 607.195C202.963 607.284 203.376 607.45 203.76 607.693C204.148 607.936 204.465 608.283 204.712 608.735C204.959 609.183 205.083 609.764 205.083 610.48V617H203.216V615.658H203.14C203.016 615.905 202.831 616.148 202.584 616.386C202.336 616.625 202.019 616.823 201.631 616.981C201.243 617.138 200.779 617.217 200.238 617.217ZM200.653 615.683C201.182 615.683 201.633 615.579 202.008 615.37C202.388 615.161 202.675 614.888 202.871 614.552C203.072 614.211 203.172 613.847 203.172 613.459V612.193C203.104 612.261 202.971 612.325 202.775 612.385C202.584 612.44 202.364 612.489 202.117 612.532C201.87 612.57 201.629 612.607 201.395 612.641C201.16 612.67 200.964 612.696 200.807 612.717C200.436 612.764 200.097 612.843 199.79 612.954C199.488 613.065 199.245 613.224 199.062 613.433C198.883 613.638 198.793 613.911 198.793 614.251C198.793 614.724 198.968 615.082 199.317 615.325C199.667 615.564 200.112 615.683 200.653 615.683ZM211.745 620.886C210.965 620.886 210.294 620.784 209.732 620.58C209.173 620.375 208.717 620.104 208.364 619.768C208.01 619.431 207.746 619.063 207.571 618.662L209.214 617.984C209.329 618.172 209.482 618.37 209.674 618.579C209.87 618.792 210.134 618.973 210.467 619.122C210.803 619.271 211.236 619.346 211.764 619.346C212.489 619.346 213.087 619.169 213.56 618.815C214.033 618.466 214.27 617.908 214.27 617.141V615.21H214.148C214.033 615.419 213.867 615.651 213.65 615.907C213.437 616.163 213.143 616.384 212.768 616.572C212.393 616.759 211.905 616.853 211.304 616.853C210.528 616.853 209.83 616.672 209.207 616.31C208.589 615.943 208.099 615.404 207.737 614.692C207.379 613.977 207.2 613.097 207.2 612.053C207.2 611.009 207.377 610.114 207.731 609.368C208.089 608.622 208.579 608.051 209.201 607.655C209.823 607.254 210.528 607.054 211.317 607.054C211.926 607.054 212.418 607.156 212.793 607.361C213.168 607.561 213.46 607.795 213.669 608.064C213.882 608.332 214.046 608.569 214.161 608.773H214.302V607.182H216.175V617.217C216.175 618.061 215.979 618.754 215.587 619.295C215.195 619.836 214.664 620.237 213.995 620.496C213.33 620.756 212.58 620.886 211.745 620.886ZM211.726 615.268C212.276 615.268 212.74 615.14 213.119 614.884C213.503 614.624 213.793 614.254 213.989 613.772C214.189 613.286 214.289 612.705 214.289 612.027C214.289 611.366 214.191 610.785 213.995 610.282C213.799 609.779 213.511 609.387 213.132 609.106C212.753 608.82 212.284 608.678 211.726 608.678C211.151 608.678 210.671 608.827 210.288 609.125C209.904 609.419 209.614 609.82 209.418 610.327C209.227 610.834 209.131 611.401 209.131 612.027C209.131 612.67 209.229 613.235 209.425 613.721C209.621 614.207 209.911 614.586 210.294 614.859C210.682 615.131 211.159 615.268 211.726 615.268ZM222.969 617.198C222.002 617.198 221.169 616.991 220.47 616.578C219.776 616.161 219.239 615.575 218.859 614.82C218.484 614.062 218.297 613.173 218.297 612.155C218.297 611.149 218.484 610.263 218.859 609.496C219.239 608.729 219.767 608.13 220.445 607.7C221.126 607.269 221.923 607.054 222.835 607.054C223.389 607.054 223.926 607.146 224.446 607.329C224.966 607.512 225.433 607.8 225.846 608.192C226.259 608.584 226.585 609.093 226.824 609.719C227.063 610.342 227.182 611.098 227.182 611.989V612.666H219.377V611.234H225.309C225.309 610.732 225.207 610.286 225.002 609.898C224.798 609.506 224.51 609.197 224.139 608.972C223.773 608.746 223.342 608.633 222.848 608.633C222.311 608.633 221.842 608.765 221.442 609.029C221.045 609.289 220.739 609.63 220.521 610.052C220.308 610.469 220.202 610.923 220.202 611.413V612.532C220.202 613.188 220.317 613.746 220.547 614.207C220.781 614.667 221.107 615.018 221.525 615.261C221.942 615.5 222.43 615.619 222.989 615.619C223.351 615.619 223.681 615.568 223.979 615.466C224.278 615.359 224.536 615.202 224.753 614.993C224.97 614.784 225.136 614.526 225.251 614.219L227.06 614.545C226.915 615.078 226.656 615.545 226.281 615.945C225.91 616.342 225.443 616.651 224.881 616.872C224.322 617.089 223.685 617.198 222.969 617.198ZM241.423 609.579L239.691 609.886C239.619 609.664 239.504 609.453 239.346 609.253C239.192 609.053 238.984 608.888 238.719 608.761C238.455 608.633 238.125 608.569 237.729 608.569C237.188 608.569 236.736 608.69 236.374 608.933C236.011 609.172 235.83 609.481 235.83 609.86C235.83 610.188 235.952 610.452 236.195 610.653C236.438 610.853 236.83 611.017 237.371 611.145L238.93 611.503C239.834 611.712 240.507 612.033 240.95 612.468C241.393 612.903 241.615 613.467 241.615 614.162C241.615 614.75 241.445 615.274 241.104 615.734C240.767 616.19 240.296 616.548 239.691 616.808C239.09 617.068 238.393 617.198 237.601 617.198C236.501 617.198 235.604 616.964 234.91 616.495C234.215 616.022 233.789 615.351 233.631 614.482L235.479 614.2C235.594 614.682 235.83 615.046 236.188 615.293C236.546 615.536 237.013 615.658 237.588 615.658C238.214 615.658 238.715 615.528 239.09 615.268C239.465 615.004 239.653 614.682 239.653 614.303C239.653 613.996 239.538 613.738 239.308 613.529C239.082 613.32 238.734 613.163 238.266 613.056L236.604 612.692C235.688 612.483 235.01 612.151 234.571 611.695C234.136 611.239 233.919 610.661 233.919 609.962C233.919 609.383 234.081 608.876 234.405 608.441C234.729 608.006 235.176 607.668 235.747 607.425C236.318 607.178 236.972 607.054 237.71 607.054C238.771 607.054 239.606 607.284 240.215 607.744C240.825 608.2 241.227 608.812 241.423 609.579ZM246.574 617.217C245.952 617.217 245.389 617.102 244.886 616.872C244.383 616.638 243.985 616.299 243.691 615.856C243.401 615.413 243.256 614.869 243.256 614.226C243.256 613.672 243.363 613.216 243.576 612.858C243.789 612.5 244.077 612.217 244.439 612.008C244.801 611.799 245.206 611.641 245.653 611.535C246.101 611.428 246.557 611.347 247.021 611.292C247.609 611.224 248.086 611.168 248.453 611.126C248.819 611.079 249.086 611.004 249.252 610.902C249.418 610.8 249.501 610.634 249.501 610.403V610.359C249.501 609.8 249.344 609.368 249.028 609.061C248.717 608.754 248.253 608.601 247.635 608.601C246.991 608.601 246.484 608.744 246.113 609.029C245.747 609.31 245.493 609.624 245.353 609.969L243.557 609.56C243.77 608.963 244.081 608.482 244.49 608.115C244.903 607.744 245.378 607.476 245.915 607.31C246.452 607.139 247.017 607.054 247.609 607.054C248.001 607.054 248.417 607.101 248.856 607.195C249.299 607.284 249.712 607.45 250.096 607.693C250.483 607.936 250.801 608.283 251.048 608.735C251.295 609.183 251.419 609.764 251.419 610.48V617H249.552V615.658H249.476C249.352 615.905 249.167 616.148 248.92 616.386C248.672 616.625 248.355 616.823 247.967 616.981C247.579 617.138 247.115 617.217 246.574 617.217ZM246.989 615.683C247.518 615.683 247.969 615.579 248.344 615.37C248.724 615.161 249.011 614.888 249.207 614.552C249.407 614.211 249.508 613.847 249.508 613.459V612.193C249.439 612.261 249.307 612.325 249.111 612.385C248.92 612.44 248.7 612.489 248.453 612.532C248.206 612.57 247.965 612.607 247.731 612.641C247.496 612.67 247.3 612.696 247.143 612.717C246.772 612.764 246.433 612.843 246.126 612.954C245.824 613.065 245.581 613.224 245.398 613.433C245.219 613.638 245.129 613.911 245.129 614.251C245.129 614.724 245.304 615.082 245.653 615.325C246.003 615.564 246.448 615.683 246.989 615.683ZM262.012 607.182L258.452 617H256.406L252.839 607.182H254.891L257.378 614.737H257.48L259.96 607.182H262.012ZM263.808 617V607.182H265.719V617H263.808ZM264.773 605.667C264.441 605.667 264.156 605.556 263.917 605.335C263.683 605.109 263.565 604.84 263.565 604.529C263.565 604.214 263.683 603.945 263.917 603.724C264.156 603.498 264.441 603.385 264.773 603.385C265.106 603.385 265.389 603.498 265.624 603.724C265.862 603.945 265.982 604.214 265.982 604.529C265.982 604.84 265.862 605.109 265.624 605.335C265.389 605.556 265.106 605.667 264.773 605.667ZM270.202 611.17V617H268.291V607.182H270.125V608.78H270.247C270.472 608.26 270.826 607.842 271.308 607.527C271.794 607.212 272.405 607.054 273.142 607.054C273.811 607.054 274.397 607.195 274.9 607.476C275.403 607.753 275.793 608.166 276.07 608.716C276.347 609.266 276.485 609.945 276.485 610.755V617H274.574V610.985C274.574 610.273 274.389 609.717 274.018 609.317C273.647 608.912 273.138 608.71 272.49 608.71C272.047 608.71 271.653 608.805 271.308 608.997C270.967 609.189 270.696 609.47 270.496 609.841C270.3 610.207 270.202 610.651 270.202 611.17ZM283.165 620.886C282.385 620.886 281.714 620.784 281.151 620.58C280.593 620.375 280.137 620.104 279.784 619.768C279.43 619.431 279.166 619.063 278.991 618.662L280.634 617.984C280.749 618.172 280.902 618.37 281.094 618.579C281.29 618.792 281.554 618.973 281.887 619.122C282.223 619.271 282.656 619.346 283.184 619.346C283.909 619.346 284.507 619.169 284.98 618.815C285.453 618.466 285.69 617.908 285.69 617.141V615.21H285.568C285.453 615.419 285.287 615.651 285.07 615.907C284.857 616.163 284.563 616.384 284.188 616.572C283.813 616.759 283.325 616.853 282.724 616.853C281.948 616.853 281.249 616.672 280.627 616.31C280.009 615.943 279.519 615.404 279.157 614.692C278.799 613.977 278.62 613.097 278.62 612.053C278.62 611.009 278.797 610.114 279.151 609.368C279.509 608.622 279.999 608.051 280.621 607.655C281.243 607.254 281.948 607.054 282.737 607.054C283.346 607.054 283.838 607.156 284.213 607.361C284.588 607.561 284.88 607.795 285.089 608.064C285.302 608.332 285.466 608.569 285.581 608.773H285.722V607.182H287.595V617.217C287.595 618.061 287.399 618.754 287.007 619.295C286.615 619.836 286.084 620.237 285.415 620.496C284.75 620.756 284 620.886 283.165 620.886ZM283.146 615.268C283.695 615.268 284.16 615.14 284.539 614.884C284.923 614.624 285.213 614.254 285.409 613.772C285.609 613.286 285.709 612.705 285.709 612.027C285.709 611.366 285.611 610.785 285.415 610.282C285.219 609.779 284.931 609.387 284.552 609.106C284.173 608.82 283.704 608.678 283.146 608.678C282.57 608.678 282.091 608.827 281.708 609.125C281.324 609.419 281.034 609.82 280.838 610.327C280.646 610.834 280.551 611.401 280.551 612.027C280.551 612.67 280.649 613.235 280.845 613.721C281.041 614.207 281.33 614.586 281.714 614.859C282.102 615.131 282.579 615.268 283.146 615.268ZM297.515 609.579L295.783 609.886C295.71 609.664 295.595 609.453 295.438 609.253C295.284 609.053 295.075 608.888 294.811 608.761C294.547 608.633 294.217 608.569 293.82 608.569C293.279 608.569 292.828 608.69 292.465 608.933C292.103 609.172 291.922 609.481 291.922 609.86C291.922 610.188 292.044 610.452 292.286 610.653C292.529 610.853 292.921 611.017 293.463 611.145L295.022 611.503C295.926 611.712 296.599 612.033 297.042 612.468C297.485 612.903 297.707 613.467 297.707 614.162C297.707 614.75 297.536 615.274 297.195 615.734C296.859 616.19 296.388 616.548 295.783 616.808C295.182 617.068 294.485 617.198 293.693 617.198C292.593 617.198 291.696 616.964 291.002 616.495C290.307 616.022 289.881 615.351 289.723 614.482L291.57 614.2C291.686 614.682 291.922 615.046 292.28 615.293C292.638 615.536 293.105 615.658 293.68 615.658C294.306 615.658 294.807 615.528 295.182 615.268C295.557 615.004 295.744 614.682 295.744 614.303C295.744 613.996 295.629 613.738 295.399 613.529C295.173 613.32 294.826 613.163 294.357 613.056L292.695 612.692C291.779 612.483 291.102 612.151 290.663 611.695C290.228 611.239 290.011 610.661 290.011 609.962C290.011 609.383 290.173 608.876 290.497 608.441C290.82 608.006 291.268 607.668 291.839 607.425C292.41 607.178 293.064 607.054 293.801 607.054C294.862 607.054 295.698 607.284 296.307 607.744C296.916 608.2 297.319 608.812 297.515 609.579ZM132.219 642.217C131.597 642.217 131.035 642.102 130.532 641.872C130.029 641.638 129.63 641.299 129.336 640.856C129.047 640.413 128.902 639.869 128.902 639.226C128.902 638.672 129.008 638.216 129.221 637.858C129.434 637.5 129.722 637.217 130.084 637.008C130.446 636.799 130.851 636.641 131.299 636.535C131.746 636.428 132.202 636.347 132.667 636.292C133.255 636.224 133.732 636.168 134.098 636.126C134.465 636.079 134.731 636.004 134.897 635.902C135.064 635.8 135.147 635.634 135.147 635.403V635.359C135.147 634.8 134.989 634.368 134.674 634.061C134.363 633.754 133.898 633.601 133.28 633.601C132.637 633.601 132.13 633.744 131.759 634.029C131.392 634.31 131.139 634.624 130.998 634.969L129.202 634.56C129.415 633.963 129.726 633.482 130.135 633.115C130.549 632.744 131.024 632.476 131.561 632.31C132.098 632.139 132.662 632.054 133.255 632.054C133.647 632.054 134.062 632.101 134.501 632.195C134.944 632.284 135.358 632.45 135.741 632.693C136.129 632.936 136.446 633.283 136.694 633.735C136.941 634.183 137.064 634.764 137.064 635.48V642H135.198V640.658H135.121C134.998 640.905 134.812 641.148 134.565 641.386C134.318 641.625 134 641.823 133.613 641.981C133.225 642.138 132.76 642.217 132.219 642.217ZM132.635 640.683C133.163 640.683 133.615 640.579 133.99 640.37C134.369 640.161 134.657 639.888 134.853 639.552C135.053 639.211 135.153 638.847 135.153 638.459V637.193C135.085 637.261 134.953 637.325 134.757 637.385C134.565 637.44 134.346 637.489 134.098 637.532C133.851 637.57 133.611 637.607 133.376 637.641C133.142 637.67 132.946 637.696 132.788 637.717C132.417 637.764 132.079 637.843 131.772 637.954C131.469 638.065 131.226 638.224 131.043 638.433C130.864 638.638 130.775 638.911 130.775 639.251C130.775 639.724 130.949 640.082 131.299 640.325C131.648 640.564 132.093 640.683 132.635 640.683ZM143.746 642.198C142.795 642.198 141.977 641.983 141.291 641.553C140.609 641.118 140.085 640.519 139.719 639.756C139.352 638.994 139.169 638.12 139.169 637.136C139.169 636.138 139.356 635.259 139.731 634.496C140.106 633.729 140.635 633.13 141.317 632.7C141.998 632.269 142.802 632.054 143.726 632.054C144.472 632.054 145.137 632.192 145.721 632.469C146.305 632.742 146.775 633.126 147.133 633.62C147.496 634.114 147.711 634.692 147.779 635.352H145.919C145.817 634.892 145.582 634.496 145.216 634.163C144.854 633.831 144.368 633.665 143.758 633.665C143.226 633.665 142.759 633.805 142.359 634.087C141.962 634.364 141.653 634.76 141.432 635.276C141.21 635.787 141.099 636.392 141.099 637.091C141.099 637.807 141.208 638.425 141.425 638.945C141.643 639.464 141.949 639.867 142.346 640.153C142.746 640.438 143.217 640.581 143.758 640.581C144.121 640.581 144.449 640.515 144.743 640.383C145.041 640.246 145.29 640.053 145.491 639.801C145.695 639.55 145.838 639.247 145.919 638.893H147.779C147.711 639.528 147.504 640.095 147.159 640.594C146.814 641.092 146.351 641.484 145.772 641.77C145.197 642.055 144.521 642.198 143.746 642.198ZM153.959 642.198C153.008 642.198 152.19 641.983 151.504 641.553C150.822 641.118 150.298 640.519 149.932 639.756C149.565 638.994 149.382 638.12 149.382 637.136C149.382 636.138 149.569 635.259 149.944 634.496C150.319 633.729 150.848 633.13 151.53 632.7C152.211 632.269 153.015 632.054 153.939 632.054C154.685 632.054 155.35 632.192 155.934 632.469C156.517 632.742 156.988 633.126 157.346 633.62C157.709 634.114 157.924 634.692 157.992 635.352H156.132C156.03 634.892 155.795 634.496 155.429 634.163C155.066 633.831 154.581 633.665 153.971 633.665C153.439 633.665 152.972 633.805 152.571 634.087C152.175 634.364 151.866 634.76 151.645 635.276C151.423 635.787 151.312 636.392 151.312 637.091C151.312 637.807 151.421 638.425 151.638 638.945C151.856 639.464 152.162 639.867 152.559 640.153C152.959 640.438 153.43 640.581 153.971 640.581C154.334 640.581 154.662 640.515 154.956 640.383C155.254 640.246 155.503 640.053 155.704 639.801C155.908 639.55 156.051 639.247 156.132 638.893H157.992C157.924 639.528 157.717 640.095 157.372 640.594C157.027 641.092 156.564 641.484 155.985 641.77C155.41 642.055 154.734 642.198 153.959 642.198ZM164.171 642.198C163.251 642.198 162.448 641.987 161.762 641.565C161.076 641.143 160.543 640.553 160.164 639.795C159.784 639.036 159.595 638.15 159.595 637.136C159.595 636.117 159.784 635.227 160.164 634.464C160.543 633.701 161.076 633.109 161.762 632.687C162.448 632.265 163.251 632.054 164.171 632.054C165.092 632.054 165.895 632.265 166.581 632.687C167.267 633.109 167.8 633.701 168.179 634.464C168.559 635.227 168.748 636.117 168.748 637.136C168.748 638.15 168.559 639.036 168.179 639.795C167.8 640.553 167.267 641.143 166.581 641.565C165.895 641.987 165.092 642.198 164.171 642.198ZM164.178 640.594C164.774 640.594 165.269 640.436 165.661 640.121C166.053 639.805 166.343 639.386 166.53 638.862C166.722 638.337 166.818 637.76 166.818 637.129C166.818 636.503 166.722 635.928 166.53 635.403C166.343 634.875 166.053 634.451 165.661 634.131C165.269 633.812 164.774 633.652 164.178 633.652C163.577 633.652 163.078 633.812 162.682 634.131C162.29 634.451 161.998 634.875 161.806 635.403C161.619 635.928 161.525 636.503 161.525 637.129C161.525 637.76 161.619 638.337 161.806 638.862C161.998 639.386 162.29 639.805 162.682 640.121C163.078 640.436 163.577 640.594 164.178 640.594ZM177.101 637.928V632.182H179.019V642H177.139V640.3H177.037C176.811 640.824 176.449 641.261 175.95 641.61C175.456 641.955 174.84 642.128 174.103 642.128C173.472 642.128 172.914 641.989 172.428 641.712C171.947 641.431 171.568 641.016 171.291 640.466C171.018 639.916 170.881 639.237 170.881 638.427V632.182H172.793V638.197C172.793 638.866 172.978 639.398 173.349 639.795C173.72 640.191 174.201 640.389 174.793 640.389C175.151 640.389 175.507 640.3 175.861 640.121C176.219 639.942 176.515 639.671 176.749 639.309C176.988 638.947 177.105 638.487 177.101 637.928ZM183.498 636.17V642H181.587V632.182H183.421V633.78H183.543C183.768 633.26 184.122 632.842 184.604 632.527C185.089 632.212 185.701 632.054 186.438 632.054C187.107 632.054 187.693 632.195 188.196 632.476C188.699 632.753 189.089 633.166 189.366 633.716C189.643 634.266 189.781 634.945 189.781 635.755V642H187.87V635.985C187.87 635.273 187.685 634.717 187.314 634.317C186.943 633.912 186.434 633.71 185.786 633.71C185.343 633.71 184.949 633.805 184.604 633.997C184.263 634.189 183.992 634.47 183.792 634.841C183.596 635.207 183.498 635.651 183.498 636.17ZM196.927 632.182V633.716H191.565V632.182H196.927ZM193.003 629.83H194.914V639.117C194.914 639.488 194.969 639.767 195.08 639.955C195.191 640.138 195.334 640.263 195.508 640.332C195.687 640.396 195.881 640.428 196.09 640.428C196.244 640.428 196.378 640.417 196.493 640.396C196.608 640.374 196.697 640.357 196.761 640.344L197.106 641.923C196.996 641.966 196.838 642.009 196.633 642.051C196.429 642.098 196.173 642.124 195.866 642.128C195.364 642.136 194.895 642.047 194.46 641.859C194.025 641.672 193.674 641.382 193.405 640.99C193.137 640.598 193.003 640.106 193.003 639.513V629.83ZM205.934 642L203.045 632.182H205.02L206.944 639.392H207.04L208.97 632.182H210.945L212.863 639.36H212.959L214.87 632.182H216.845L213.962 642H212.013L210.018 634.911H209.871L207.877 642H205.934ZM218.659 642V632.182H220.57V642H218.659ZM219.624 630.667C219.292 630.667 219.006 630.556 218.767 630.335C218.533 630.109 218.416 629.84 218.416 629.529C218.416 629.214 218.533 628.945 218.767 628.724C219.006 628.498 219.292 628.385 219.624 628.385C219.956 628.385 220.24 628.498 220.474 628.724C220.713 628.945 220.832 629.214 220.832 629.529C220.832 629.84 220.713 630.109 220.474 630.335C220.24 630.556 219.956 630.667 219.624 630.667ZM227.724 632.182V633.716H222.361V632.182H227.724ZM223.8 629.83H225.711V639.117C225.711 639.488 225.766 639.767 225.877 639.955C225.988 640.138 226.131 640.263 226.305 640.332C226.484 640.396 226.678 640.428 226.887 640.428C227.04 640.428 227.175 640.417 227.29 640.396C227.405 640.374 227.494 640.357 227.558 640.344L227.903 641.923C227.793 641.966 227.635 642.009 227.43 642.051C227.226 642.098 226.97 642.124 226.663 642.128C226.16 642.136 225.692 642.047 225.257 641.859C224.822 641.672 224.471 641.382 224.202 640.99C223.934 640.598 223.8 640.106 223.8 639.513V629.83ZM231.961 636.17V642H230.049V628.909H231.935V633.78H232.057C232.287 633.251 232.638 632.832 233.111 632.521C233.584 632.21 234.202 632.054 234.965 632.054C235.638 632.054 236.226 632.192 236.729 632.469C237.236 632.746 237.628 633.16 237.905 633.71C238.187 634.255 238.327 634.937 238.327 635.755V642H236.416V635.985C236.416 635.265 236.231 634.707 235.86 634.31C235.489 633.91 234.973 633.71 234.313 633.71C233.861 633.71 233.456 633.805 233.098 633.997C232.745 634.189 232.466 634.47 232.261 634.841C232.061 635.207 231.961 635.651 231.961 636.17ZM245.795 642V628.909H247.706V633.773H247.821C247.932 633.569 248.092 633.332 248.3 633.064C248.509 632.795 248.799 632.561 249.17 632.361C249.54 632.156 250.03 632.054 250.64 632.054C251.432 632.054 252.14 632.254 252.762 632.655C253.384 633.055 253.872 633.633 254.226 634.387C254.584 635.141 254.763 636.049 254.763 637.11C254.763 638.171 254.586 639.081 254.232 639.839C253.878 640.594 253.393 641.175 252.775 641.585C252.157 641.989 251.452 642.192 250.659 642.192C250.062 642.192 249.574 642.092 249.195 641.891C248.82 641.691 248.526 641.457 248.313 641.188C248.1 640.92 247.936 640.681 247.821 640.472H247.661V642H245.795ZM247.668 637.091C247.668 637.781 247.768 638.386 247.968 638.906C248.168 639.426 248.458 639.833 248.837 640.127C249.217 640.417 249.681 640.562 250.231 640.562C250.802 640.562 251.279 640.411 251.663 640.108C252.046 639.801 252.336 639.386 252.532 638.862C252.732 638.337 252.832 637.747 252.832 637.091C252.832 636.443 252.734 635.862 252.538 635.346C252.347 634.83 252.057 634.423 251.669 634.125C251.285 633.827 250.806 633.678 250.231 633.678C249.677 633.678 249.208 633.82 248.824 634.106C248.445 634.391 248.158 634.79 247.962 635.301C247.766 635.812 247.668 636.409 247.668 637.091ZM256.909 642V632.182H258.82V642H256.909ZM257.874 630.667C257.542 630.667 257.256 630.556 257.017 630.335C256.783 630.109 256.666 629.84 256.666 629.529C256.666 629.214 256.783 628.945 257.017 628.724C257.256 628.498 257.542 628.385 257.874 628.385C258.206 628.385 258.49 628.498 258.724 628.724C258.963 628.945 259.082 629.214 259.082 629.529C259.082 629.84 258.963 630.109 258.724 630.335C258.49 630.556 258.206 630.667 257.874 630.667ZM265.508 645.886C264.728 645.886 264.057 645.784 263.494 645.58C262.936 645.375 262.48 645.104 262.126 644.768C261.773 644.431 261.508 644.063 261.334 643.662L262.976 642.984C263.092 643.172 263.245 643.37 263.437 643.579C263.633 643.792 263.897 643.973 264.229 644.122C264.566 644.271 264.998 644.346 265.527 644.346C266.251 644.346 266.85 644.169 267.323 643.815C267.796 643.466 268.033 642.908 268.033 642.141V640.21H267.911C267.796 640.419 267.63 640.651 267.413 640.907C267.199 641.163 266.905 641.384 266.53 641.572C266.155 641.759 265.668 641.853 265.067 641.853C264.291 641.853 263.592 641.672 262.97 641.31C262.352 640.943 261.862 640.404 261.5 639.692C261.142 638.977 260.963 638.097 260.963 637.053C260.963 636.009 261.14 635.114 261.494 634.368C261.851 633.622 262.342 633.051 262.964 632.655C263.586 632.254 264.291 632.054 265.079 632.054C265.689 632.054 266.181 632.156 266.556 632.361C266.931 632.561 267.223 632.795 267.432 633.064C267.645 633.332 267.809 633.569 267.924 633.773H268.065V632.182H269.937V642.217C269.937 643.061 269.741 643.754 269.349 644.295C268.957 644.836 268.427 645.237 267.758 645.496C267.093 645.756 266.343 645.886 265.508 645.886ZM265.489 640.268C266.038 640.268 266.503 640.14 266.882 639.884C267.266 639.624 267.555 639.254 267.751 638.772C267.952 638.286 268.052 637.705 268.052 637.027C268.052 636.366 267.954 635.785 267.758 635.282C267.562 634.779 267.274 634.387 266.895 634.106C266.516 633.82 266.047 633.678 265.489 633.678C264.913 633.678 264.434 633.827 264.05 634.125C263.667 634.419 263.377 634.82 263.181 635.327C262.989 635.834 262.893 636.401 262.893 637.027C262.893 637.67 262.991 638.235 263.187 638.721C263.383 639.207 263.673 639.586 264.057 639.859C264.445 640.131 264.922 640.268 265.489 640.268ZM277.418 642V628.909H279.329V633.773H279.444C279.555 633.569 279.715 633.332 279.923 633.064C280.132 632.795 280.422 632.561 280.793 632.361C281.163 632.156 281.653 632.054 282.263 632.054C283.055 632.054 283.763 632.254 284.385 632.655C285.007 633.055 285.495 633.633 285.849 634.387C286.207 635.141 286.386 636.049 286.386 637.11C286.386 638.171 286.209 639.081 285.855 639.839C285.502 640.594 285.016 641.175 284.398 641.585C283.78 641.989 283.075 642.192 282.282 642.192C281.685 642.192 281.198 642.092 280.818 641.891C280.443 641.691 280.149 641.457 279.936 641.188C279.723 640.92 279.559 640.681 279.444 640.472H279.284V642H277.418ZM279.291 637.091C279.291 637.781 279.391 638.386 279.591 638.906C279.791 639.426 280.081 639.833 280.46 640.127C280.84 640.417 281.304 640.562 281.854 640.562C282.425 640.562 282.902 640.411 283.286 640.108C283.669 639.801 283.959 639.386 284.155 638.862C284.355 638.337 284.455 637.747 284.455 637.091C284.455 636.443 284.357 635.862 284.161 635.346C283.97 634.83 283.68 634.423 283.292 634.125C282.908 633.827 282.429 633.678 281.854 633.678C281.3 633.678 280.831 633.82 280.448 634.106C280.068 634.391 279.781 634.79 279.585 635.301C279.389 635.812 279.291 636.409 279.291 637.091ZM291.389 642.217C290.767 642.217 290.204 642.102 289.702 641.872C289.199 641.638 288.8 641.299 288.506 640.856C288.217 640.413 288.072 639.869 288.072 639.226C288.072 638.672 288.178 638.216 288.391 637.858C288.604 637.5 288.892 637.217 289.254 637.008C289.616 636.799 290.021 636.641 290.469 636.535C290.916 636.428 291.372 636.347 291.837 636.292C292.425 636.224 292.902 636.168 293.268 636.126C293.635 636.079 293.901 636.004 294.067 635.902C294.234 635.8 294.317 635.634 294.317 635.403V635.359C294.317 634.8 294.159 634.368 293.844 634.061C293.533 633.754 293.068 633.601 292.45 633.601C291.807 633.601 291.3 633.744 290.929 634.029C290.562 634.31 290.309 634.624 290.168 634.969L288.372 634.56C288.585 633.963 288.896 633.482 289.305 633.115C289.719 632.744 290.194 632.476 290.731 632.31C291.268 632.139 291.832 632.054 292.425 632.054C292.817 632.054 293.232 632.101 293.671 632.195C294.114 632.284 294.528 632.45 294.911 632.693C295.299 632.936 295.616 633.283 295.864 633.735C296.111 634.183 296.234 634.764 296.234 635.48V642H294.368V640.658H294.291C294.168 640.905 293.982 641.148 293.735 641.386C293.488 641.625 293.17 641.823 292.783 641.981C292.395 642.138 291.93 642.217 291.389 642.217ZM291.805 640.683C292.333 640.683 292.785 640.579 293.16 640.37C293.539 640.161 293.827 639.888 294.023 639.552C294.223 639.211 294.323 638.847 294.323 638.459V637.193C294.255 637.261 294.123 637.325 293.927 637.385C293.735 637.44 293.516 637.489 293.268 637.532C293.021 637.57 292.78 637.607 292.546 637.641C292.312 637.67 292.116 637.696 291.958 637.717C291.587 637.764 291.248 637.843 290.942 637.954C290.639 638.065 290.396 638.224 290.213 638.433C290.034 638.638 289.945 638.911 289.945 639.251C289.945 639.724 290.119 640.082 290.469 640.325C290.818 640.564 291.263 640.683 291.805 640.683ZM300.691 636.17V642H298.78V632.182H300.614V633.78H300.736C300.962 633.26 301.315 632.842 301.797 632.527C302.283 632.212 302.894 632.054 303.631 632.054C304.301 632.054 304.886 632.195 305.389 632.476C305.892 632.753 306.282 633.166 306.559 633.716C306.836 634.266 306.975 634.945 306.975 635.755V642H305.063V635.985C305.063 635.273 304.878 634.717 304.507 634.317C304.136 633.912 303.627 633.71 302.979 633.71C302.536 633.71 302.142 633.805 301.797 633.997C301.456 634.189 301.185 634.47 300.985 634.841C300.789 635.207 300.691 635.651 300.691 636.17ZM311.296 638.67L311.283 636.337H311.615L315.527 632.182H317.815L313.354 636.912H313.053L311.296 638.67ZM309.538 642V628.909H311.449V642H309.538ZM315.738 642L312.222 637.334L313.539 635.998L318.084 642H315.738ZM326.915 634.579L325.182 634.886C325.11 634.664 324.995 634.453 324.837 634.253C324.684 634.053 324.475 633.888 324.211 633.761C323.946 633.633 323.616 633.569 323.22 633.569C322.679 633.569 322.227 633.69 321.865 633.933C321.503 634.172 321.321 634.481 321.321 634.86C321.321 635.188 321.443 635.452 321.686 635.653C321.929 635.853 322.321 636.017 322.862 636.145L324.422 636.503C325.325 636.712 325.998 637.033 326.441 637.468C326.885 637.903 327.106 638.467 327.106 639.162C327.106 639.75 326.936 640.274 326.595 640.734C326.258 641.19 325.787 641.548 325.182 641.808C324.581 642.068 323.885 642.198 323.092 642.198C321.993 642.198 321.096 641.964 320.401 641.495C319.706 641.022 319.28 640.351 319.123 639.482L320.97 639.2C321.085 639.682 321.321 640.046 321.679 640.293C322.037 640.536 322.504 640.658 323.079 640.658C323.706 640.658 324.206 640.528 324.581 640.268C324.956 640.004 325.144 639.682 325.144 639.303C325.144 638.996 325.029 638.738 324.799 638.529C324.573 638.32 324.226 638.163 323.757 638.056L322.095 637.692C321.179 637.483 320.501 637.151 320.062 636.695C319.628 636.239 319.41 635.661 319.41 634.962C319.41 634.383 319.572 633.876 319.896 633.441C320.22 633.006 320.667 632.668 321.238 632.425C321.809 632.178 322.464 632.054 323.201 632.054C324.262 632.054 325.097 632.284 325.706 632.744C326.316 633.2 326.718 633.812 326.915 634.579Z" fill="black"/>
<path d="M203.268 448.45C200.898 448.45 198.828 448.015 197.058 447.145C195.318 446.275 193.728 444.97 192.288 443.23L196.248 439.225C197.178 440.455 198.228 441.445 199.398 442.195C200.598 442.915 201.993 443.275 203.583 443.275C205.203 443.275 206.478 442.945 207.408 442.285C208.338 441.625 208.803 440.695 208.803 439.495C208.803 438.535 208.533 437.755 207.993 437.155C207.453 436.555 206.733 436.045 205.833 435.625C204.963 435.205 204.003 434.83 202.953 434.5C201.903 434.14 200.853 433.735 199.803 433.285C198.753 432.835 197.778 432.28 196.878 431.62C196.008 430.93 195.303 430.06 194.763 429.01C194.253 427.93 193.998 426.58 193.998 424.96C193.998 423.04 194.448 421.405 195.348 420.055C196.278 418.705 197.538 417.67 199.128 416.95C200.748 416.23 202.578 415.87 204.618 415.87C206.598 415.87 208.428 416.275 210.108 417.085C211.788 417.895 213.183 418.945 214.293 420.235L210.288 424.24C209.388 423.22 208.458 422.44 207.498 421.9C206.568 421.36 205.563 421.09 204.483 421.09C203.013 421.09 201.873 421.375 201.063 421.945C200.253 422.485 199.848 423.325 199.848 424.465C199.848 425.335 200.118 426.04 200.658 426.58C201.198 427.12 201.903 427.585 202.773 427.975C203.673 428.365 204.648 428.74 205.698 429.1C206.778 429.46 207.843 429.865 208.893 430.315C209.973 430.765 210.948 431.35 211.818 432.07C212.718 432.79 213.438 433.72 213.978 434.86C214.518 435.97 214.788 437.35 214.788 439C214.788 441.94 213.753 444.25 211.683 445.93C209.643 447.61 206.838 448.45 203.268 448.45ZM202.188 445.66H206.463V452.5H202.188V445.66ZM206.463 418.885H202.188V411.82H206.463V418.885ZM224.362 448V416.365H230.392V448H224.362ZM218.152 421.675V416.365H229.942V421.675H218.152ZM246.151 448.45C243.901 448.45 241.951 448.06 240.301 447.28C238.681 446.5 237.406 445.405 236.476 443.995C235.576 442.585 235.126 440.995 235.126 439.225C235.126 437.755 235.411 436.42 235.981 435.22C236.551 434.02 237.361 433.015 238.411 432.205C239.491 431.365 240.751 430.78 242.191 430.45L242.056 431.935C240.856 431.635 239.836 431.11 238.996 430.36C238.156 429.61 237.526 428.725 237.106 427.705C236.686 426.655 236.476 425.575 236.476 424.465C236.476 422.755 236.881 421.255 237.691 419.965C238.531 418.675 239.671 417.67 241.111 416.95C242.581 416.23 244.261 415.87 246.151 415.87C248.041 415.87 249.706 416.23 251.146 416.95C252.586 417.67 253.711 418.675 254.521 419.965C255.361 421.255 255.781 422.755 255.781 424.465C255.781 425.575 255.571 426.655 255.151 427.705C254.731 428.725 254.101 429.61 253.261 430.36C252.451 431.11 251.431 431.635 250.201 431.935L250.066 430.45C251.536 430.78 252.796 431.365 253.846 432.205C254.896 433.015 255.706 434.02 256.276 435.22C256.846 436.42 257.131 437.755 257.131 439.225C257.131 440.995 256.681 442.585 255.781 443.995C254.881 445.405 253.606 446.5 251.956 447.28C250.306 448.06 248.371 448.45 246.151 448.45ZM246.151 443.095C247.141 443.095 248.026 442.9 248.806 442.51C249.586 442.09 250.186 441.52 250.606 440.8C251.056 440.08 251.281 439.27 251.281 438.37C251.281 437.44 251.056 436.63 250.606 435.94C250.186 435.22 249.586 434.665 248.806 434.275C248.026 433.855 247.141 433.645 246.151 433.645C245.131 433.645 244.231 433.855 243.451 434.275C242.701 434.665 242.101 435.22 241.651 435.94C241.201 436.63 240.976 437.44 240.976 438.37C240.976 439.27 241.201 440.08 241.651 440.8C242.101 441.52 242.701 442.09 243.451 442.51C244.231 442.9 245.131 443.095 246.151 443.095ZM246.151 429.01C247.321 429.01 248.281 428.635 249.031 427.885C249.781 427.135 250.156 426.175 250.156 425.005C250.156 423.805 249.781 422.83 249.031 422.08C248.281 421.33 247.321 420.955 246.151 420.955C244.981 420.955 244.006 421.33 243.226 422.08C242.476 422.83 242.101 423.79 242.101 424.96C242.101 426.16 242.476 427.135 243.226 427.885C244.006 428.635 244.981 429.01 246.151 429.01Z" fill="#4C4C4C"/>
<path d="M473.648 121.45C471.278 121.45 469.208 121.015 467.438 120.145C465.698 119.275 464.108 117.97 462.668 116.23L466.628 112.225C467.558 113.455 468.608 114.445 469.778 115.195C470.978 115.915 472.373 116.275 473.963 116.275C475.583 116.275 476.858 115.945 477.788 115.285C478.718 114.625 479.183 113.695 479.183 112.495C479.183 111.535 478.913 110.755 478.373 110.155C477.833 109.555 477.113 109.045 476.213 108.625C475.343 108.205 474.383 107.83 473.333 107.5C472.283 107.14 471.233 106.735 470.183 106.285C469.133 105.835 468.158 105.28 467.258 104.62C466.388 103.93 465.683 103.06 465.143 102.01C464.633 100.93 464.378 99.58 464.378 97.96C464.378 96.04 464.828 94.405 465.728 93.055C466.658 91.705 467.918 90.67 469.508 89.95C471.128 89.23 472.958 88.87 474.998 88.87C476.978 88.87 478.808 89.275 480.488 90.085C482.168 90.895 483.563 91.945 484.673 93.235L480.668 97.24C479.768 96.22 478.838 95.44 477.878 94.9C476.948 94.36 475.943 94.09 474.863 94.09C473.393 94.09 472.253 94.375 471.443 94.945C470.633 95.485 470.228 96.325 470.228 97.465C470.228 98.335 470.498 99.04 471.038 99.58C471.578 100.12 472.283 100.585 473.153 100.975C474.053 101.365 475.028 101.74 476.078 102.1C477.158 102.46 478.223 102.865 479.273 103.315C480.353 103.765 481.328 104.35 482.198 105.07C483.098 105.79 483.818 106.72 484.358 107.86C484.898 108.97 485.168 110.35 485.168 112C485.168 114.94 484.133 117.25 482.063 118.93C480.023 120.61 477.218 121.45 473.648 121.45ZM472.568 118.66H476.843V125.5H472.568V118.66ZM476.843 91.885H472.568V84.82H476.843V91.885ZM492.106 121L503.221 92.92H509.251L498.451 121H492.106ZM487.741 94.675V89.365H509.251V92.92L506.956 94.675H487.741ZM521.599 121.45C519.409 121.45 517.414 121.075 515.614 120.325C513.814 119.545 512.314 118.435 511.114 116.995L515.164 112.99C515.764 113.89 516.619 114.61 517.729 115.15C518.869 115.69 520.114 115.96 521.464 115.96C522.694 115.96 523.759 115.735 524.659 115.285C525.589 114.835 526.309 114.205 526.819 113.395C527.359 112.555 527.629 111.58 527.629 110.47C527.629 109.3 527.359 108.31 526.819 107.5C526.309 106.69 525.619 106.075 524.749 105.655C523.879 105.235 522.904 105.025 521.824 105.025C520.684 105.025 519.649 105.175 518.719 105.475C517.819 105.745 516.949 106.195 516.109 106.825L516.469 102.955C517.039 102.355 517.639 101.875 518.269 101.515C518.899 101.125 519.604 100.84 520.384 100.66C521.194 100.45 522.139 100.345 523.219 100.345C525.529 100.345 527.449 100.825 528.979 101.785C530.539 102.715 531.724 103.975 532.534 105.565C533.344 107.125 533.749 108.85 533.749 110.74C533.749 112.81 533.239 114.655 532.219 116.275C531.199 117.895 529.774 119.17 527.944 120.1C526.144 121 524.029 121.45 521.599 121.45ZM516.109 106.825L513.184 103.945L514.624 89.365H520.159L518.539 104.17L516.109 106.825ZM515.569 94.675L514.624 89.365H531.994V94.675H515.569Z" fill="#4C4C4C"/>
<defs>
<linearGradient id="paint0_linear_8351_6163" x1="500.5" y1="142" x2="500.5" y2="582" gradientUnits="userSpaceOnUse">
<stop stop-color="#767CFF"/>
<stop offset="0.23" stop-color="#9B9AFF"/>
<stop offset="0.495" stop-color="#AFB0FF"/>
<stop offset="0.75" stop-color="#C4C5FF"/>
<stop offset="0.94" stop-color="#C6C7FF"/>
</linearGradient>
</defs>
</svg>
